<svg width="375" height="246" viewBox="0 0 375 246" fill="none" xmlns="http://www.w3.org/2000/svg">
<rect width="375" height="238" fill="#12A054"/>
<path fill-rule="evenodd" clip-rule="evenodd" d="M255 204.627C267.171 200.804 276 189.433 276 176C276 159.431 262.569 146 246 146C229.431 146 216 159.431 216 176C216 189.433 224.829 200.804 237 204.627V246H255V204.627Z" fill="#FBFBFB"/>
<mask id="mask0_372_1870" style="mask-type:alpha" maskUnits="userSpaceOnUse" x="226" y="156" width="40" height="40">
<rect x="226" y="156" width="40" height="40" fill="#D9D9D9"/>
</mask>
<g mask="url(#mask0_372_1870)">
<path d="M246.002 193.326C243.609 193.326 241.359 192.874 239.253 191.968C237.147 191.063 235.31 189.827 233.742 188.258C232.173 186.69 230.937 184.854 230.031 182.749C229.126 180.644 228.674 178.395 228.674 176.002C228.674 173.591 229.126 171.332 230.031 169.226C230.937 167.119 232.172 165.287 233.739 163.727C235.306 162.167 237.142 160.933 239.247 160.023C241.353 159.113 243.602 158.658 245.996 158.658C248.409 158.658 250.669 159.113 252.776 160.022C254.884 160.931 256.717 162.164 258.276 163.722C259.834 165.281 261.068 167.113 261.978 169.22C262.887 171.326 263.342 173.586 263.342 176C263.342 178.395 262.887 180.645 261.977 182.751C261.067 184.857 259.833 186.693 258.273 188.26C256.713 189.827 254.881 191.063 252.777 191.968C250.672 192.874 248.414 193.326 246.002 193.326ZM246 189.653C249.808 189.653 253.035 188.328 255.682 185.678C258.33 183.028 259.653 179.802 259.653 176C259.653 172.192 258.33 168.965 255.682 166.318C253.035 163.67 249.805 162.347 245.992 162.347C242.198 162.347 238.975 163.67 236.324 166.318C233.672 168.965 232.347 172.195 232.347 176.008C232.347 179.802 233.672 183.025 236.322 185.676C238.972 188.328 242.198 189.653 246 189.653Z" fill="#12A054"/>
</g>
<path fill-rule="evenodd" clip-rule="evenodd" d="M325 204.627C337.171 200.804 346 189.433 346 176C346 159.431 332.569 146 316 146C299.431 146 286 159.431 286 176C286 189.433 294.829 200.804 307 204.627V246H325V204.627Z" fill="#FBFBFB"/>
<mask id="mask1_372_1870" style="mask-type:alpha" maskUnits="userSpaceOnUse" x="292" y="152" width="48" height="48">
<rect x="292" y="152" width="48" height="48" fill="#D9D9D9"/>
</mask>
<g mask="url(#mask1_372_1870)">
<path d="M316 178.778L305.839 188.939C305.445 189.334 304.982 189.531 304.45 189.531C303.918 189.531 303.455 189.334 303.061 188.939C302.667 188.545 302.47 188.082 302.47 187.55C302.47 187.018 302.667 186.555 303.061 186.161L313.222 176L303.061 165.839C302.667 165.445 302.47 164.982 302.47 164.45C302.47 163.918 302.667 163.455 303.061 163.061C303.455 162.667 303.918 162.47 304.45 162.47C304.982 162.47 305.445 162.667 305.839 163.061L316 173.222L326.161 163.061C326.555 162.667 327.018 162.47 327.55 162.47C328.082 162.47 328.545 162.667 328.939 163.061C329.334 163.455 329.531 163.918 329.531 164.45C329.531 164.982 329.334 165.445 328.939 165.839L318.778 176L328.939 186.161C329.334 186.555 329.531 187.018 329.531 187.55C329.531 188.082 329.334 188.545 328.939 188.939C328.545 189.334 328.082 189.531 327.55 189.531C327.018 189.531 326.555 189.334 326.161 188.939L316 178.778Z" fill="#12A054"/>
</g>
<path d="M34.2 60.33C42.93 60.33 47.97 64.965 47.97 75.9V77.745C47.97 82.695 46.935 86.34 45 88.86L47.61 91.425C48.555 92.37 48.285 93.585 47.34 94.53C46.44 95.43 45.225 95.7 44.28 94.755L41.355 91.875C39.42 92.82 37.035 93.315 34.2 93.315C25.47 93.315 20.43 88.68 20.43 77.745V75.9C20.43 64.965 25.47 60.33 34.2 60.33ZM34.2 65.595C28.935 65.595 26.235 68.205 26.235 76.35V77.295C26.235 85.44 28.935 88.05 34.2 88.05C35.37 88.05 36.36 87.915 37.125 87.69L34.47 85.035C33.525 84.09 33.795 82.875 34.695 81.975C35.64 81.03 36.855 80.76 37.8 81.705L40.815 84.72C41.715 83.01 42.165 80.625 42.165 77.295V76.35C42.165 68.205 39.465 65.595 34.2 65.595ZM55.656 60.555C57.186 60.555 58.536 61.32 58.536 63.03V79.545C58.536 85.935 60.651 88.095 65.376 88.095C70.101 88.095 72.216 85.935 72.216 79.545V63.03C72.216 61.32 73.566 60.555 75.096 60.555C76.626 60.555 77.976 61.32 77.976 63.03V79.455C77.976 90.075 73.521 93.315 65.376 93.315C57.276 93.315 52.776 90.075 52.776 79.455V63.03C52.776 61.32 54.126 60.555 55.656 60.555ZM87.166 60.555C88.696 60.555 90.046 61.32 90.046 63.03V90.615C90.046 92.325 88.696 93.09 87.166 93.09C85.636 93.09 84.286 92.325 84.286 90.615V63.03C84.286 61.32 85.636 60.555 87.166 60.555ZM97.2898 60.825H115.56C118.305 60.825 119.385 61.77 119.385 63.93C119.385 64.92 119.25 65.415 117.54 67.575L101.475 87.87H118.35C119.79 87.87 120.42 88.995 120.42 90.345C120.42 91.695 119.79 92.82 118.35 92.82H98.4148C95.4448 92.82 94.3198 91.875 94.3198 89.535C94.3198 88.545 94.5448 87.78 96.7948 84.945L111.915 65.775H97.2898C95.8498 65.775 95.2198 64.65 95.2198 63.3C95.2198 61.95 95.8498 60.825 97.2898 60.825Z" fill="white"/>
<mask id="mask2_372_1870" style="mask-type:alpha" maskUnits="userSpaceOnUse" x="179" y="68" width="49" height="49">
<rect x="179" y="68" width="49" height="49" fill="#D9D9D9"/>
</mask>
<g mask="url(#mask2_372_1870)">
<path d="M203.598 82.8208C203.352 82.8208 203.137 82.7285 202.952 82.544C202.768 82.3595 202.676 82.1442 202.676 81.8981V78.7376C202.676 77.5964 203.071 76.6305 203.861 75.84C204.652 75.0495 205.618 74.6543 206.759 74.6543H209.919C210.165 74.6543 210.381 74.7466 210.565 74.9311C210.75 75.1156 210.842 75.3309 210.842 75.577V78.7376C210.842 79.8788 210.447 80.8446 209.656 81.6351C208.866 82.4256 207.9 82.8208 206.759 82.8208H203.598ZM192.075 94.0499C190.376 94.0499 188.93 93.4538 187.738 92.2615C186.546 91.0693 185.95 89.6237 185.95 87.925V83.6454C185.95 83.1193 186.126 82.6802 186.478 82.3282C186.83 81.9761 187.269 81.8001 187.795 81.8001H192.075C193.773 81.8001 195.219 82.3962 196.411 83.5885C197.603 84.7807 198.2 86.2262 198.2 87.925V92.2046C198.2 92.7307 198.024 93.1698 197.671 93.5219C197.319 93.8739 196.88 94.0499 196.354 94.0499H192.075ZM211.667 111.384C210.392 111.384 209.177 111.18 208.021 110.772C206.865 110.364 205.82 109.802 204.886 109.088L202.534 111.439C202.251 111.722 201.896 111.867 201.468 111.873C201.04 111.88 200.678 111.735 200.383 111.439C200.087 111.144 199.942 110.782 199.949 110.354C199.955 109.926 200.1 109.571 200.383 109.288L202.734 106.936C202.02 106.001 201.458 104.956 201.05 103.801C200.642 102.645 200.438 101.43 200.438 100.155C200.438 97.0404 201.53 94.385 203.716 92.1889C205.902 89.9928 208.552 88.8948 211.667 88.8948H219.806C220.667 88.8948 221.399 89.1964 222.003 89.7997C222.606 90.4031 222.907 91.1353 222.907 91.9965V100.155C222.907 103.27 221.813 105.92 219.623 108.106C217.434 110.292 214.781 111.384 211.667 111.384ZM206.272 105.55C206.568 105.846 206.926 105.994 207.348 105.994C207.769 105.994 208.128 105.846 208.424 105.55L212.742 101.231C213.038 100.935 213.186 100.577 213.186 100.155C213.186 99.7339 213.038 99.3753 212.742 99.0795C212.447 98.7837 212.088 98.6358 211.667 98.6358C211.245 98.6358 210.887 98.7837 210.591 99.0795L206.272 103.398C205.976 103.694 205.828 104.053 205.828 104.474C205.828 104.896 205.976 105.254 206.272 105.55Z" fill="#9DE49B"/>
</g>
<path d="M32.168 104.952H34.58V117.138H32.168V104.952ZM23.474 119.406H34.994V121.314H23.474V119.406ZM23.474 116.058H25.868V120.522H23.474V116.058ZM24.788 108.228H26.75V108.822C26.75 111.81 25.22 114.456 21.998 115.392L20.864 113.52C23.6 112.728 24.788 110.766 24.788 108.822V108.228ZM25.238 108.228H27.182V108.822C27.182 110.64 28.388 112.494 31.124 113.25L30.008 115.122C26.768 114.222 25.238 111.684 25.238 108.822V108.228ZM21.422 106.86H30.53V108.732H21.422V106.86ZM24.788 105.024H27.182V107.634H24.788V105.024ZM47.7546 104.934H50.1486V117.966H47.7546V104.934ZM49.3026 110.388H52.2366V112.332H49.3026V110.388ZM39.0246 119.406H50.7066V121.314H39.0246V119.406ZM39.0246 117.12H41.4366V119.964H39.0246V117.12ZM40.6986 112.944H43.0926V115.374H40.6986V112.944ZM36.9906 116.346L36.7206 114.51C39.6186 114.51 43.6326 114.456 47.0166 113.952L47.1966 115.59C43.7406 116.238 39.8346 116.31 36.9906 116.346ZM37.1526 106.266H46.6026V107.994H37.1526V106.266ZM41.8866 108.426C44.3346 108.426 45.9366 109.398 45.9366 111.018C45.9366 112.602 44.3346 113.592 41.8866 113.592C39.4386 113.592 37.8186 112.602 37.8186 111.018C37.8186 109.398 39.4386 108.426 41.8866 108.426ZM41.8866 110.028C40.7526 110.028 40.0866 110.352 40.0866 111.018C40.0866 111.648 40.7526 111.972 41.8866 111.972C43.0026 111.972 43.6686 111.648 43.6686 111.018C43.6686 110.352 43.0026 110.028 41.8866 110.028ZM40.6986 104.862H43.0926V107.004H40.6986V104.862ZM61.1452 107.562H65.0512V109.47H61.1452V107.562ZM61.0192 111.018H64.9252V112.926H61.0192V111.018ZM64.6732 104.934H67.0672V114.528H64.6732V104.934ZM59.2372 106.068H61.7932C61.7932 110.604 59.2372 113.52 54.1792 114.906L53.2432 113.016C57.4732 111.918 59.2372 109.83 59.2372 107.22V106.068ZM54.1612 106.068H60.9112V107.976H54.1612V106.068ZM61.5412 114.744C64.9252 114.744 67.1752 116.04 67.1752 118.128C67.1752 120.216 64.9252 121.53 61.5412 121.53C58.1572 121.53 55.9072 120.216 55.9072 118.128C55.9072 116.04 58.1572 114.744 61.5412 114.744ZM61.5412 116.58C59.5072 116.58 58.2832 117.102 58.2832 118.128C58.2832 119.154 59.5072 119.658 61.5412 119.658C63.5932 119.658 64.8172 119.154 64.8172 118.128C64.8172 117.102 63.5932 116.58 61.5412 116.58ZM74.8159 113.52H86.5339V115.392H74.8159V113.52ZM73.0519 117.75H88.1359V119.694H73.0519V117.75ZM74.8159 106.14H86.3899V108.066H77.2459V114.042H74.8159V106.14ZM76.5079 109.812H86.0119V111.666H76.5079V109.812ZM89.8985 113.268H91.0505C93.4265 113.268 94.9565 113.232 96.7925 112.908L97.0085 114.762C95.1365 115.122 93.4985 115.158 91.0505 115.158H89.8985V113.268ZM89.8805 106.176H95.7485V111.504H92.2205V114.132H89.8985V109.758H93.4265V108.048H89.8805V106.176ZM96.3245 109.092H99.4745V111.018H96.3245V109.092ZM101.166 104.934H103.434V117.462H101.166V104.934ZM97.8185 105.24H100.05V117.084H97.8185V105.24ZM92.2205 119.406H103.866V121.314H92.2205V119.406ZM92.2205 116.256H94.6145V120.828H92.2205V116.256ZM107.195 112.62H118.913V114.528H107.195V112.62ZM105.449 117.642H120.533V119.604H105.449V117.642ZM107.195 106.302H118.787V108.246H109.571V113.412H107.195V106.302ZM128.732 110.514H131.126V113.574H128.732V110.514ZM134.6 110.514H136.976V113.574H134.6V110.514ZM125.348 112.836H140.414V114.726H125.348V112.836ZM132.854 115.572C136.454 115.572 138.632 116.652 138.632 118.578C138.632 120.522 136.454 121.602 132.854 121.602C129.236 121.602 127.058 120.522 127.058 118.578C127.058 116.652 129.236 115.572 132.854 115.572ZM132.854 117.372C130.622 117.372 129.488 117.75 129.488 118.578C129.488 119.424 130.622 119.802 132.854 119.802C135.086 119.802 136.22 119.424 136.22 118.578C136.22 117.75 135.086 117.372 132.854 117.372ZM132.89 105.168C136.562 105.168 138.92 106.392 138.92 108.39C138.92 110.37 136.562 111.558 132.89 111.558C129.2 111.558 126.86 110.37 126.86 108.39C126.86 106.392 129.2 105.168 132.89 105.168ZM132.89 107.004C130.604 107.004 129.326 107.454 129.326 108.39C129.326 109.308 130.604 109.758 132.89 109.758C135.176 109.758 136.454 109.308 136.454 108.39C136.454 107.454 135.176 107.004 132.89 107.004ZM146.118 106.086C148.602 106.086 150.42 108.39 150.42 112.026C150.42 115.698 148.602 118.002 146.118 118.002C143.616 118.002 141.816 115.698 141.816 112.026C141.816 108.39 143.616 106.086 146.118 106.086ZM146.118 108.264C144.912 108.264 144.102 109.578 144.102 112.026C144.102 114.51 144.912 115.842 146.118 115.842C147.342 115.842 148.134 114.51 148.134 112.026C148.134 109.578 147.342 108.264 146.118 108.264ZM153.156 104.916H155.532V121.638H153.156V104.916ZM149.718 110.928H154.164V112.854H149.718V110.928ZM162.741 106.014H169.869V107.922H162.741V106.014ZM168.789 106.014H171.129V107.058C171.129 108.534 171.129 110.532 170.499 113.502H168.105C168.789 110.568 168.789 108.516 168.789 107.058V106.014ZM169.077 109.344V111.054L162.633 111.594L162.327 109.614L169.077 109.344ZM165.513 113.952H167.925V120.72H165.513V113.952ZM173.253 104.934H175.647V121.602H173.253V104.934ZM161.661 115.158L161.373 113.214C164.685 113.214 168.717 113.16 172.317 112.764L172.497 114.51C168.807 115.068 164.919 115.158 161.661 115.158ZM177.68 117.66H192.764V119.604H177.68V117.66ZM183.944 107.238H185.96V108.192C185.96 111.684 183.44 114.492 179.192 115.266L178.256 113.358C181.964 112.782 183.944 110.496 183.944 108.192V107.238ZM184.43 107.238H186.446V108.192C186.446 110.496 188.426 112.71 192.224 113.268L191.306 115.176C186.986 114.42 184.43 111.684 184.43 108.192V107.238ZM178.922 106.32H191.468V108.228H178.922V106.32Z" fill="white"/>
<path d="M29.184 39.366H30.654V49.376H29.184V39.366ZM30.094 43.706H32.404V44.91H30.094V43.706ZM22.366 50.72H31.102V51.91H22.366V50.72ZM22.366 48.718H23.836V51.07H22.366V48.718ZM23.78 45.568H25.25V47.374H23.78V45.568ZM20.7 48.004L20.532 46.856C22.772 46.856 25.894 46.814 28.512 46.408L28.624 47.43C25.95 47.934 22.912 47.99 20.7 48.004ZM20.854 40.514H28.162V41.592H20.854V40.514ZM24.508 42.04C26.342 42.04 27.546 42.782 27.546 44.014C27.546 45.232 26.342 45.988 24.508 45.988C22.674 45.988 21.47 45.232 21.47 44.014C21.47 42.782 22.674 42.04 24.508 42.04ZM24.508 43.048C23.486 43.048 22.856 43.398 22.856 44.014C22.856 44.616 23.486 44.966 24.508 44.966C25.53 44.966 26.16 44.616 26.16 44.014C26.16 43.398 25.53 43.048 24.508 43.048ZM23.78 39.31H25.25V40.99H23.78V39.31ZM39.0949 41.578H42.3289V42.754H39.0949V41.578ZM38.9829 44.224H42.2449V45.414H38.9829V44.224ZM42.0909 39.366H43.5609V46.898H42.0909V39.366ZM38.0169 40.29H39.5709C39.5709 43.664 37.4429 45.946 33.6769 47.024L33.0889 45.862C36.3509 44.966 38.0169 43.202 38.0169 40.962V40.29ZM33.7749 40.29H39.0249V41.466H33.7749V40.29ZM39.3609 47.052C41.9509 47.052 43.6309 48.004 43.6309 49.572C43.6309 51.14 41.9509 52.106 39.3609 52.106C36.7709 52.106 35.0909 51.14 35.0909 49.572C35.0909 48.004 36.7709 47.052 39.3609 47.052ZM39.3609 48.186C37.6249 48.186 36.5329 48.69 36.5329 49.572C36.5329 50.454 37.6249 50.944 39.3609 50.944C41.1109 50.944 42.1889 50.454 42.1889 49.572C42.1889 48.69 41.1109 48.186 39.3609 48.186ZM51.0498 39.562C53.9198 39.562 55.6138 40.346 55.6138 41.774C55.6138 43.188 53.9198 43.972 51.0498 43.972C48.1798 43.972 46.4998 43.188 46.4998 41.774C46.4998 40.346 48.1798 39.562 51.0498 39.562ZM51.0498 40.654C49.0758 40.654 48.0118 41.046 48.0118 41.774C48.0118 42.502 49.0758 42.88 51.0498 42.88C53.0378 42.88 54.0878 42.502 54.0878 41.774C54.0878 41.046 53.0378 40.654 51.0498 40.654ZM45.2678 44.714H56.8318V45.876H45.2678V44.714ZM46.6398 46.814H55.3898V49.866H48.1098V51.238H46.6538V48.83H53.9478V47.906H46.6398V46.814ZM46.6538 50.916H55.7538V52.05H46.6538V50.916ZM63.4332 41.284H64.6092V43.076C64.6092 45.89 63.1672 48.676 60.9692 49.726L60.1292 48.564C62.1032 47.654 63.4332 45.26 63.4332 43.076V41.284ZM63.7412 41.284H64.9032V43.076C64.9032 45.19 66.2192 47.402 68.2212 48.242L67.4092 49.404C65.1832 48.41 63.7412 45.82 63.7412 43.076V41.284ZM60.5912 40.64H67.7452V41.858H60.5912V40.64ZM69.2432 39.366H70.7132V52.162H69.2432V39.366ZM77.9362 40.654H79.3502C79.3502 44.462 78.1602 47.85 73.4562 50.16L72.6722 49.026C76.6762 47.052 77.9362 44.364 77.9362 40.822V40.654ZM73.4002 40.654H78.6642V41.83H73.4002V40.654ZM77.8242 43.804V44.938L72.9662 45.386L72.7562 44.126L77.8242 43.804ZM81.5902 39.366H83.0602V52.162H81.5902V39.366ZM93.9091 39.366H95.3791V52.162H93.9091V39.366ZM90.1571 40.724H91.5991C91.5991 44.518 90.0871 47.738 85.6911 49.88L84.9211 48.704C88.6031 46.926 90.1571 44.392 90.1571 40.976V40.724ZM85.5511 40.724H90.8151V41.9H85.5511V40.724ZM103.884 39.926C105.802 39.926 107.188 41.018 107.188 42.6C107.188 44.182 105.802 45.288 103.884 45.288C101.966 45.288 100.58 44.182 100.58 42.6C100.58 41.018 101.966 39.926 103.884 39.926ZM103.884 41.13C102.778 41.13 101.994 41.704 101.994 42.6C101.994 43.51 102.778 44.07 103.884 44.07C104.99 44.07 105.788 43.51 105.788 42.6C105.788 41.704 104.99 41.13 103.884 41.13ZM103.212 46.646H104.682V51.77H103.212V46.646ZM108.84 39.366H110.296V52.162H108.84V39.366ZM99.9085 47.43L99.7265 46.212C102.036 46.212 105.242 46.184 108.014 45.764L108.112 46.842C105.27 47.388 102.19 47.416 99.9085 47.43ZM120.557 39.38H122.027V48.956H120.557V39.38ZM121.593 43.44H123.833V44.658H121.593V43.44ZM112.059 40.836H119.591V41.998H112.059V40.836ZM115.825 42.586C117.645 42.586 118.919 43.566 118.919 45.008C118.919 46.464 117.645 47.43 115.825 47.43C113.991 47.43 112.717 46.464 112.717 45.008C112.717 43.566 113.991 42.586 115.825 42.586ZM115.825 43.72C114.817 43.72 114.131 44.21 114.131 45.008C114.131 45.82 114.817 46.296 115.825 46.296C116.833 46.296 117.519 45.82 117.519 45.008C117.519 44.21 116.833 43.72 115.825 43.72ZM115.097 39.366H116.553V41.41H115.097V39.366ZM113.935 50.72H122.545V51.91H113.935V50.72ZM113.935 48.214H115.405V51.224H113.935V48.214ZM136.035 39.366H137.505V52.162H136.035V39.366ZM132.283 40.724H133.725C133.725 44.518 132.213 47.738 127.817 49.88L127.047 48.704C130.729 46.926 132.283 44.392 132.283 40.976V40.724ZM127.677 40.724H132.941V41.9H127.677V40.724ZM139.268 49.418H150.86V50.622H139.268V49.418ZM144.322 46.716H145.778V50.048H144.322V46.716ZM144.308 42.04H145.61V42.32C145.61 44.854 143.426 46.674 140.318 47.15L139.772 45.988C142.544 45.61 144.308 44.07 144.308 42.32V42.04ZM144.504 42.04H145.792V42.32C145.792 44.07 147.556 45.61 150.328 45.988L149.782 47.15C146.688 46.674 144.504 44.854 144.504 42.32V42.04ZM140.29 41.256H149.796V42.446H140.29V41.256ZM144.322 39.59H145.778V41.718H144.322V39.59ZM156.901 43.678H158.357V46.058H156.901V43.678ZM161.507 43.678H162.963V46.058H161.507V43.678ZM154.157 45.582H165.721V46.744H154.157V45.582ZM159.925 47.57C162.669 47.57 164.335 48.396 164.335 49.852C164.335 51.322 162.669 52.148 159.925 52.148C157.167 52.148 155.515 51.322 155.515 49.852C155.515 48.396 157.167 47.57 159.925 47.57ZM159.925 48.69C158.049 48.69 156.999 49.096 156.999 49.852C156.999 50.622 158.049 51.028 159.925 51.028C161.801 51.028 162.851 50.622 162.851 49.852C162.851 49.096 161.801 48.69 159.925 48.69ZM159.939 39.576C162.739 39.576 164.503 40.486 164.503 41.998C164.503 43.51 162.739 44.392 159.939 44.392C157.139 44.392 155.389 43.51 155.389 41.998C155.389 40.486 157.139 39.576 159.939 39.576ZM159.939 40.71C158.035 40.71 156.901 41.158 156.901 41.998C156.901 42.824 158.035 43.272 159.939 43.272C161.857 43.272 162.991 42.824 162.991 41.998C162.991 41.158 161.857 40.71 159.939 40.71ZM169.934 40.304C171.824 40.304 173.168 42.054 173.168 44.812C173.168 47.57 171.824 49.334 169.934 49.334C168.044 49.334 166.7 47.57 166.7 44.812C166.7 42.054 168.044 40.304 169.934 40.304ZM169.934 41.634C168.842 41.634 168.1 42.824 168.1 44.812C168.1 46.814 168.842 48.018 169.934 48.018C171.04 48.018 171.782 46.814 171.782 44.812C171.782 42.824 171.04 41.634 169.934 41.634ZM175.646 39.352H177.102V52.176H175.646V39.352ZM172.72 44.126H176.276V45.302H172.72V44.126Z" fill="#9DE49B"/>
</svg>
