<svg width="335" height="246" viewBox="0 0 335 246" fill="none" xmlns="http://www.w3.org/2000/svg">
<rect width="335" height="238" rx="15" fill="#12A054"/>
<path fill-rule="evenodd" clip-rule="evenodd" d="M218 204.627C230.171 200.804 239 189.433 239 176C239 159.431 225.569 146 209 146C192.431 146 179 159.431 179 176C179 189.433 187.829 200.804 200 204.627V246H218V204.627Z" fill="#FBFBFB"/>
<mask id="mask0_955_5282" style="mask-type:alpha" maskUnits="userSpaceOnUse" x="189" y="156" width="40" height="40">
<rect x="189" y="156" width="40" height="40" fill="#D9D9D9"/>
</mask>
<g mask="url(#mask0_955_5282)">
<path d="M209.002 193.326C206.609 193.326 204.359 192.874 202.253 191.968C200.147 191.063 198.31 189.827 196.742 188.258C195.173 186.69 193.937 184.854 193.031 182.749C192.126 180.644 191.674 178.395 191.674 176.002C191.674 173.591 192.126 171.332 193.031 169.226C193.937 167.119 195.172 165.287 196.739 163.727C198.306 162.167 200.142 160.933 202.247 160.023C204.353 159.113 206.602 158.658 208.996 158.658C211.409 158.658 213.669 159.113 215.776 160.022C217.884 160.931 219.717 162.164 221.276 163.722C222.834 165.281 224.068 167.113 224.978 169.22C225.887 171.326 226.342 173.586 226.342 176C226.342 178.395 225.887 180.645 224.977 182.751C224.067 184.857 222.833 186.693 221.273 188.26C219.713 189.827 217.881 191.063 215.777 191.968C213.672 192.874 211.414 193.326 209.002 193.326ZM209 189.653C212.808 189.653 216.035 188.328 218.682 185.678C221.33 183.028 222.653 179.802 222.653 176C222.653 172.192 221.33 168.965 218.682 166.318C216.035 163.67 212.805 162.347 208.992 162.347C205.198 162.347 201.975 163.67 199.324 166.318C196.672 168.965 195.347 172.195 195.347 176.008C195.347 179.802 196.672 183.025 199.322 185.676C201.972 188.328 205.198 189.653 209 189.653Z" fill="#12A054"/>
</g>
<path fill-rule="evenodd" clip-rule="evenodd" d="M288 204.627C300.171 200.804 309 189.433 309 176C309 159.431 295.569 146 279 146C262.431 146 249 159.431 249 176C249 189.433 257.829 200.804 270 204.627V246H288V204.627Z" fill="#FBFBFB"/>
<mask id="mask1_955_5282" style="mask-type:alpha" maskUnits="userSpaceOnUse" x="255" y="152" width="48" height="48">
<rect x="255" y="152" width="48" height="48" fill="#D9D9D9"/>
</mask>
<g mask="url(#mask1_955_5282)">
<path d="M279 178.778L268.839 188.939C268.445 189.334 267.982 189.531 267.45 189.531C266.918 189.531 266.455 189.334 266.061 188.939C265.667 188.545 265.47 188.082 265.47 187.55C265.47 187.018 265.667 186.555 266.061 186.161L276.222 176L266.061 165.839C265.667 165.445 265.47 164.982 265.47 164.45C265.47 163.918 265.667 163.455 266.061 163.061C266.455 162.667 266.918 162.47 267.45 162.47C267.982 162.47 268.445 162.667 268.839 163.061L279 173.222L289.161 163.061C289.555 162.667 290.018 162.47 290.55 162.47C291.082 162.47 291.545 162.667 291.939 163.061C292.334 163.455 292.531 163.918 292.531 164.45C292.531 164.982 292.334 165.445 291.939 165.839L281.778 176L291.939 186.161C292.334 186.555 292.531 187.018 292.531 187.55C292.531 188.082 292.334 188.545 291.939 188.939C291.545 189.334 291.082 189.531 290.55 189.531C290.018 189.531 289.555 189.334 289.161 188.939L279 178.778Z" fill="#12A054"/>
</g>
<path d="M35.2 60.33C43.93 60.33 48.97 64.965 48.97 75.9V77.745C48.97 82.695 47.935 86.34 46 88.86L48.61 91.425C49.555 92.37 49.285 93.585 48.34 94.53C47.44 95.43 46.225 95.7 45.28 94.755L42.355 91.875C40.42 92.82 38.035 93.315 35.2 93.315C26.47 93.315 21.43 88.68 21.43 77.745V75.9C21.43 64.965 26.47 60.33 35.2 60.33ZM35.2 65.595C29.935 65.595 27.235 68.205 27.235 76.35V77.295C27.235 85.44 29.935 88.05 35.2 88.05C36.37 88.05 37.36 87.915 38.125 87.69L35.47 85.035C34.525 84.09 34.795 82.875 35.695 81.975C36.64 81.03 37.855 80.76 38.8 81.705L41.815 84.72C42.715 83.01 43.165 80.625 43.165 77.295V76.35C43.165 68.205 40.465 65.595 35.2 65.595ZM56.656 60.555C58.186 60.555 59.536 61.32 59.536 63.03V79.545C59.536 85.935 61.651 88.095 66.376 88.095C71.101 88.095 73.216 85.935 73.216 79.545V63.03C73.216 61.32 74.566 60.555 76.096 60.555C77.626 60.555 78.976 61.32 78.976 63.03V79.455C78.976 90.075 74.521 93.315 66.376 93.315C58.276 93.315 53.776 90.075 53.776 79.455V63.03C53.776 61.32 55.126 60.555 56.656 60.555ZM88.166 60.555C89.696 60.555 91.046 61.32 91.046 63.03V90.615C91.046 92.325 89.696 93.09 88.166 93.09C86.636 93.09 85.286 92.325 85.286 90.615V63.03C85.286 61.32 86.636 60.555 88.166 60.555ZM98.2898 60.825H116.56C119.305 60.825 120.385 61.77 120.385 63.93C120.385 64.92 120.25 65.415 118.54 67.575L102.475 87.87H119.35C120.79 87.87 121.42 88.995 121.42 90.345C121.42 91.695 120.79 92.82 119.35 92.82H99.4148C96.4448 92.82 95.3198 91.875 95.3198 89.535C95.3198 88.545 95.5448 87.78 97.7948 84.945L112.915 65.775H98.2898C96.8498 65.775 96.2198 64.65 96.2198 63.3C96.2198 61.95 96.8498 60.825 98.2898 60.825Z" fill="white"/>
<mask id="mask2_955_5282" style="mask-type:alpha" maskUnits="userSpaceOnUse" x="184" y="68" width="49" height="49">
<rect x="184" y="68" width="49" height="49" fill="#D9D9D9"/>
</mask>
<g mask="url(#mask2_955_5282)">
<path d="M208.598 82.8208C208.352 82.8208 208.137 82.7285 207.952 82.544C207.768 82.3595 207.676 82.1442 207.676 81.8981V78.7376C207.676 77.5964 208.071 76.6305 208.861 75.84C209.652 75.0495 210.618 74.6543 211.759 74.6543H214.919C215.165 74.6543 215.381 74.7466 215.565 74.9311C215.75 75.1156 215.842 75.3309 215.842 75.577V78.7376C215.842 79.8788 215.447 80.8446 214.656 81.6351C213.866 82.4256 212.9 82.8208 211.759 82.8208H208.598ZM197.075 94.0499C195.376 94.0499 193.93 93.4538 192.738 92.2615C191.546 91.0693 190.95 89.6237 190.95 87.925V83.6454C190.95 83.1193 191.126 82.6802 191.478 82.3282C191.83 81.9761 192.269 81.8001 192.795 81.8001H197.075C198.773 81.8001 200.219 82.3962 201.411 83.5885C202.603 84.7807 203.2 86.2262 203.2 87.925V92.2046C203.2 92.7307 203.024 93.1698 202.671 93.5219C202.319 93.8739 201.88 94.0499 201.354 94.0499H197.075ZM216.667 111.384C215.392 111.384 214.177 111.18 213.021 110.772C211.865 110.364 210.82 109.802 209.886 109.088L207.534 111.439C207.251 111.722 206.896 111.867 206.468 111.873C206.04 111.88 205.678 111.735 205.383 111.439C205.087 111.144 204.942 110.782 204.949 110.354C204.955 109.926 205.1 109.571 205.383 109.288L207.734 106.936C207.02 106.001 206.458 104.956 206.05 103.801C205.642 102.645 205.438 101.43 205.438 100.155C205.438 97.0404 206.53 94.385 208.716 92.1889C210.902 89.9928 213.552 88.8948 216.667 88.8948H224.806C225.667 88.8948 226.399 89.1964 227.003 89.7997C227.606 90.4031 227.907 91.1353 227.907 91.9965V100.155C227.907 103.27 226.813 105.92 224.623 108.106C222.434 110.292 219.781 111.384 216.667 111.384ZM211.272 105.55C211.568 105.846 211.926 105.994 212.348 105.994C212.769 105.994 213.128 105.846 213.424 105.55L217.742 101.231C218.038 100.935 218.186 100.577 218.186 100.155C218.186 99.7339 218.038 99.3753 217.742 99.0795C217.447 98.7837 217.088 98.6358 216.667 98.6358C216.245 98.6358 215.887 98.7837 215.591 99.0795L211.272 103.398C210.976 103.694 210.828 104.053 210.828 104.474C210.828 104.896 210.976 105.254 211.272 105.55Z" fill="#9DE49B"/>
</g>
<path d="M35.168 104.952H37.58V117.138H35.168V104.952ZM26.474 119.406H37.994V121.314H26.474V119.406ZM26.474 116.058H28.868V120.522H26.474V116.058ZM27.788 108.228H29.75V108.822C29.75 111.81 28.22 114.456 24.998 115.392L23.864 113.52C26.6 112.728 27.788 110.766 27.788 108.822V108.228ZM28.238 108.228H30.182V108.822C30.182 110.64 31.388 112.494 34.124 113.25L33.008 115.122C29.768 114.222 28.238 111.684 28.238 108.822V108.228ZM24.422 106.86H33.53V108.732H24.422V106.86ZM27.788 105.024H30.182V107.634H27.788V105.024ZM50.7546 104.934H53.1486V117.966H50.7546V104.934ZM52.3026 110.388H55.2366V112.332H52.3026V110.388ZM42.0246 119.406H53.7066V121.314H42.0246V119.406ZM42.0246 117.12H44.4366V119.964H42.0246V117.12ZM43.6986 112.944H46.0926V115.374H43.6986V112.944ZM39.9906 116.346L39.7206 114.51C42.6186 114.51 46.6326 114.456 50.0166 113.952L50.1966 115.59C46.7406 116.238 42.8346 116.31 39.9906 116.346ZM40.1526 106.266H49.6026V107.994H40.1526V106.266ZM44.8866 108.426C47.3346 108.426 48.9366 109.398 48.9366 111.018C48.9366 112.602 47.3346 113.592 44.8866 113.592C42.4386 113.592 40.8186 112.602 40.8186 111.018C40.8186 109.398 42.4386 108.426 44.8866 108.426ZM44.8866 110.028C43.7526 110.028 43.0866 110.352 43.0866 111.018C43.0866 111.648 43.7526 111.972 44.8866 111.972C46.0026 111.972 46.6686 111.648 46.6686 111.018C46.6686 110.352 46.0026 110.028 44.8866 110.028ZM43.6986 104.862H46.0926V107.004H43.6986V104.862ZM64.1452 107.562H68.0512V109.47H64.1452V107.562ZM64.0192 111.018H67.9252V112.926H64.0192V111.018ZM67.6732 104.934H70.0672V114.528H67.6732V104.934ZM62.2372 106.068H64.7932C64.7932 110.604 62.2372 113.52 57.1792 114.906L56.2432 113.016C60.4732 111.918 62.2372 109.83 62.2372 107.22V106.068ZM57.1612 106.068H63.9112V107.976H57.1612V106.068ZM64.5412 114.744C67.9252 114.744 70.1752 116.04 70.1752 118.128C70.1752 120.216 67.9252 121.53 64.5412 121.53C61.1572 121.53 58.9072 120.216 58.9072 118.128C58.9072 116.04 61.1572 114.744 64.5412 114.744ZM64.5412 116.58C62.5072 116.58 61.2832 117.102 61.2832 118.128C61.2832 119.154 62.5072 119.658 64.5412 119.658C66.5932 119.658 67.8172 119.154 67.8172 118.128C67.8172 117.102 66.5932 116.58 64.5412 116.58ZM77.8159 113.52H89.5339V115.392H77.8159V113.52ZM76.0519 117.75H91.1359V119.694H76.0519V117.75ZM77.8159 106.14H89.3899V108.066H80.2459V114.042H77.8159V106.14ZM79.5079 109.812H89.0119V111.666H79.5079V109.812ZM92.8985 113.268H94.0505C96.4265 113.268 97.9565 113.232 99.7925 112.908L100.008 114.762C98.1365 115.122 96.4985 115.158 94.0505 115.158H92.8985V113.268ZM92.8805 106.176H98.7485V111.504H95.2205V114.132H92.8985V109.758H96.4265V108.048H92.8805V106.176ZM99.3245 109.092H102.474V111.018H99.3245V109.092ZM104.166 104.934H106.434V117.462H104.166V104.934ZM100.818 105.24H103.05V117.084H100.818V105.24ZM95.2205 119.406H106.866V121.314H95.2205V119.406ZM95.2205 116.256H97.6145V120.828H95.2205V116.256ZM110.195 112.62H121.913V114.528H110.195V112.62ZM108.449 117.642H123.533V119.604H108.449V117.642ZM110.195 106.302H121.787V108.246H112.571V113.412H110.195V106.302ZM131.732 110.514H134.126V113.574H131.732V110.514ZM137.6 110.514H139.976V113.574H137.6V110.514ZM128.348 112.836H143.414V114.726H128.348V112.836ZM135.854 115.572C139.454 115.572 141.632 116.652 141.632 118.578C141.632 120.522 139.454 121.602 135.854 121.602C132.236 121.602 130.058 120.522 130.058 118.578C130.058 116.652 132.236 115.572 135.854 115.572ZM135.854 117.372C133.622 117.372 132.488 117.75 132.488 118.578C132.488 119.424 133.622 119.802 135.854 119.802C138.086 119.802 139.22 119.424 139.22 118.578C139.22 117.75 138.086 117.372 135.854 117.372ZM135.89 105.168C139.562 105.168 141.92 106.392 141.92 108.39C141.92 110.37 139.562 111.558 135.89 111.558C132.2 111.558 129.86 110.37 129.86 108.39C129.86 106.392 132.2 105.168 135.89 105.168ZM135.89 107.004C133.604 107.004 132.326 107.454 132.326 108.39C132.326 109.308 133.604 109.758 135.89 109.758C138.176 109.758 139.454 109.308 139.454 108.39C139.454 107.454 138.176 107.004 135.89 107.004ZM149.118 106.086C151.602 106.086 153.42 108.39 153.42 112.026C153.42 115.698 151.602 118.002 149.118 118.002C146.616 118.002 144.816 115.698 144.816 112.026C144.816 108.39 146.616 106.086 149.118 106.086ZM149.118 108.264C147.912 108.264 147.102 109.578 147.102 112.026C147.102 114.51 147.912 115.842 149.118 115.842C150.342 115.842 151.134 114.51 151.134 112.026C151.134 109.578 150.342 108.264 149.118 108.264ZM156.156 104.916H158.532V121.638H156.156V104.916ZM152.718 110.928H157.164V112.854H152.718V110.928ZM165.741 106.014H172.869V107.922H165.741V106.014ZM171.789 106.014H174.129V107.058C174.129 108.534 174.129 110.532 173.499 113.502H171.105C171.789 110.568 171.789 108.516 171.789 107.058V106.014ZM172.077 109.344V111.054L165.633 111.594L165.327 109.614L172.077 109.344ZM168.513 113.952H170.925V120.72H168.513V113.952ZM176.253 104.934H178.647V121.602H176.253V104.934ZM164.661 115.158L164.373 113.214C167.685 113.214 171.717 113.16 175.317 112.764L175.497 114.51C171.807 115.068 167.919 115.158 164.661 115.158ZM180.68 117.66H195.764V119.604H180.68V117.66ZM186.944 107.238H188.96V108.192C188.96 111.684 186.44 114.492 182.192 115.266L181.256 113.358C184.964 112.782 186.944 110.496 186.944 108.192V107.238ZM187.43 107.238H189.446V108.192C189.446 110.496 191.426 112.71 195.224 113.268L194.306 115.176C189.986 114.42 187.43 111.684 187.43 108.192V107.238ZM181.922 106.32H194.468V108.228H181.922V106.32Z" fill="white"/>
<path d="M31.184 39.366H32.654V49.376H31.184V39.366ZM32.094 43.706H34.404V44.91H32.094V43.706ZM24.366 50.72H33.102V51.91H24.366V50.72ZM24.366 48.718H25.836V51.07H24.366V48.718ZM25.78 45.568H27.25V47.374H25.78V45.568ZM22.7 48.004L22.532 46.856C24.772 46.856 27.894 46.814 30.512 46.408L30.624 47.43C27.95 47.934 24.912 47.99 22.7 48.004ZM22.854 40.514H30.162V41.592H22.854V40.514ZM26.508 42.04C28.342 42.04 29.546 42.782 29.546 44.014C29.546 45.232 28.342 45.988 26.508 45.988C24.674 45.988 23.47 45.232 23.47 44.014C23.47 42.782 24.674 42.04 26.508 42.04ZM26.508 43.048C25.486 43.048 24.856 43.398 24.856 44.014C24.856 44.616 25.486 44.966 26.508 44.966C27.53 44.966 28.16 44.616 28.16 44.014C28.16 43.398 27.53 43.048 26.508 43.048ZM25.78 39.31H27.25V40.99H25.78V39.31ZM41.0949 41.578H44.3289V42.754H41.0949V41.578ZM40.9829 44.224H44.2449V45.414H40.9829V44.224ZM44.0909 39.366H45.5609V46.898H44.0909V39.366ZM40.0169 40.29H41.5709C41.5709 43.664 39.4429 45.946 35.6769 47.024L35.0889 45.862C38.3509 44.966 40.0169 43.202 40.0169 40.962V40.29ZM35.7749 40.29H41.0249V41.466H35.7749V40.29ZM41.3609 47.052C43.9509 47.052 45.6309 48.004 45.6309 49.572C45.6309 51.14 43.9509 52.106 41.3609 52.106C38.7709 52.106 37.0909 51.14 37.0909 49.572C37.0909 48.004 38.7709 47.052 41.3609 47.052ZM41.3609 48.186C39.6249 48.186 38.5329 48.69 38.5329 49.572C38.5329 50.454 39.6249 50.944 41.3609 50.944C43.1109 50.944 44.1889 50.454 44.1889 49.572C44.1889 48.69 43.1109 48.186 41.3609 48.186ZM53.0498 39.562C55.9198 39.562 57.6138 40.346 57.6138 41.774C57.6138 43.188 55.9198 43.972 53.0498 43.972C50.1798 43.972 48.4998 43.188 48.4998 41.774C48.4998 40.346 50.1798 39.562 53.0498 39.562ZM53.0498 40.654C51.0758 40.654 50.0118 41.046 50.0118 41.774C50.0118 42.502 51.0758 42.88 53.0498 42.88C55.0378 42.88 56.0878 42.502 56.0878 41.774C56.0878 41.046 55.0378 40.654 53.0498 40.654ZM47.2678 44.714H58.8318V45.876H47.2678V44.714ZM48.6398 46.814H57.3898V49.866H50.1098V51.238H48.6538V48.83H55.9478V47.906H48.6398V46.814ZM48.6538 50.916H57.7538V52.05H48.6538V50.916ZM65.4332 41.284H66.6092V43.076C66.6092 45.89 65.1672 48.676 62.9692 49.726L62.1292 48.564C64.1032 47.654 65.4332 45.26 65.4332 43.076V41.284ZM65.7412 41.284H66.9032V43.076C66.9032 45.19 68.2192 47.402 70.2212 48.242L69.4092 49.404C67.1832 48.41 65.7412 45.82 65.7412 43.076V41.284ZM62.5912 40.64H69.7452V41.858H62.5912V40.64ZM71.2432 39.366H72.7132V52.162H71.2432V39.366ZM79.9362 40.654H81.3502C81.3502 44.462 80.1602 47.85 75.4562 50.16L74.6722 49.026C78.6762 47.052 79.9362 44.364 79.9362 40.822V40.654ZM75.4002 40.654H80.6642V41.83H75.4002V40.654ZM79.8242 43.804V44.938L74.9662 45.386L74.7562 44.126L79.8242 43.804ZM83.5902 39.366H85.0602V52.162H83.5902V39.366ZM95.9091 39.366H97.3791V52.162H95.9091V39.366ZM92.1571 40.724H93.5991C93.5991 44.518 92.0871 47.738 87.6911 49.88L86.9211 48.704C90.6031 46.926 92.1571 44.392 92.1571 40.976V40.724ZM87.5511 40.724H92.8151V41.9H87.5511V40.724ZM105.884 39.926C107.802 39.926 109.188 41.018 109.188 42.6C109.188 44.182 107.802 45.288 105.884 45.288C103.966 45.288 102.58 44.182 102.58 42.6C102.58 41.018 103.966 39.926 105.884 39.926ZM105.884 41.13C104.778 41.13 103.994 41.704 103.994 42.6C103.994 43.51 104.778 44.07 105.884 44.07C106.99 44.07 107.788 43.51 107.788 42.6C107.788 41.704 106.99 41.13 105.884 41.13ZM105.212 46.646H106.682V51.77H105.212V46.646ZM110.84 39.366H112.296V52.162H110.84V39.366ZM101.908 47.43L101.726 46.212C104.036 46.212 107.242 46.184 110.014 45.764L110.112 46.842C107.27 47.388 104.19 47.416 101.908 47.43ZM122.557 39.38H124.027V48.956H122.557V39.38ZM123.593 43.44H125.833V44.658H123.593V43.44ZM114.059 40.836H121.591V41.998H114.059V40.836ZM117.825 42.586C119.645 42.586 120.919 43.566 120.919 45.008C120.919 46.464 119.645 47.43 117.825 47.43C115.991 47.43 114.717 46.464 114.717 45.008C114.717 43.566 115.991 42.586 117.825 42.586ZM117.825 43.72C116.817 43.72 116.131 44.21 116.131 45.008C116.131 45.82 116.817 46.296 117.825 46.296C118.833 46.296 119.519 45.82 119.519 45.008C119.519 44.21 118.833 43.72 117.825 43.72ZM117.097 39.366H118.553V41.41H117.097V39.366ZM115.935 50.72H124.545V51.91H115.935V50.72ZM115.935 48.214H117.405V51.224H115.935V48.214ZM138.035 39.366H139.505V52.162H138.035V39.366ZM134.283 40.724H135.725C135.725 44.518 134.213 47.738 129.817 49.88L129.047 48.704C132.729 46.926 134.283 44.392 134.283 40.976V40.724ZM129.677 40.724H134.941V41.9H129.677V40.724ZM141.268 49.418H152.86V50.622H141.268V49.418ZM146.322 46.716H147.778V50.048H146.322V46.716ZM146.308 42.04H147.61V42.32C147.61 44.854 145.426 46.674 142.318 47.15L141.772 45.988C144.544 45.61 146.308 44.07 146.308 42.32V42.04ZM146.504 42.04H147.792V42.32C147.792 44.07 149.556 45.61 152.328 45.988L151.782 47.15C148.688 46.674 146.504 44.854 146.504 42.32V42.04ZM142.29 41.256H151.796V42.446H142.29V41.256ZM146.322 39.59H147.778V41.718H146.322V39.59ZM158.901 43.678H160.357V46.058H158.901V43.678ZM163.507 43.678H164.963V46.058H163.507V43.678ZM156.157 45.582H167.721V46.744H156.157V45.582ZM161.925 47.57C164.669 47.57 166.335 48.396 166.335 49.852C166.335 51.322 164.669 52.148 161.925 52.148C159.167 52.148 157.515 51.322 157.515 49.852C157.515 48.396 159.167 47.57 161.925 47.57ZM161.925 48.69C160.049 48.69 158.999 49.096 158.999 49.852C158.999 50.622 160.049 51.028 161.925 51.028C163.801 51.028 164.851 50.622 164.851 49.852C164.851 49.096 163.801 48.69 161.925 48.69ZM161.939 39.576C164.739 39.576 166.503 40.486 166.503 41.998C166.503 43.51 164.739 44.392 161.939 44.392C159.139 44.392 157.389 43.51 157.389 41.998C157.389 40.486 159.139 39.576 161.939 39.576ZM161.939 40.71C160.035 40.71 158.901 41.158 158.901 41.998C158.901 42.824 160.035 43.272 161.939 43.272C163.857 43.272 164.991 42.824 164.991 41.998C164.991 41.158 163.857 40.71 161.939 40.71ZM171.934 40.304C173.824 40.304 175.168 42.054 175.168 44.812C175.168 47.57 173.824 49.334 171.934 49.334C170.044 49.334 168.7 47.57 168.7 44.812C168.7 42.054 170.044 40.304 171.934 40.304ZM171.934 41.634C170.842 41.634 170.1 42.824 170.1 44.812C170.1 46.814 170.842 48.018 171.934 48.018C173.04 48.018 173.782 46.814 173.782 44.812C173.782 42.824 173.04 41.634 171.934 41.634ZM177.646 39.352H179.102V52.176H177.646V39.352ZM174.72 44.126H178.276V45.302H174.72V44.126Z" fill="#9DE49B"/>
<rect x="24" y="141" width="71" height="30" rx="15" fill="#DCF8DB"/>
<path d="M37.724 151.276H39.236V153.166C39.236 156.498 38.088 159.508 35.512 160.698L34.406 159.158C36.66 158.178 37.724 155.686 37.724 153.166V151.276ZM38.088 151.276H39.6V153.166C39.6 155.56 40.622 157.94 42.834 158.892L41.742 160.39C39.236 159.242 38.088 156.358 38.088 153.166V151.276ZM43.45 150.268H45.326V163.274H43.45V150.268ZM50.0429 151.612H51.5689V152.424C51.5689 154.874 50.4069 157.072 47.9289 157.87L46.9629 156.428C49.1329 155.728 50.0429 154.048 50.0429 152.424V151.612ZM50.4209 151.612H51.9329V152.424C51.9329 153.95 52.8149 155.532 54.9149 156.204L53.9629 157.646C51.5409 156.862 50.4209 154.748 50.4209 152.424V151.612ZM47.4669 151.038H54.4669V152.522H47.4669V151.038ZM55.5029 150.282H57.3649V158.094H55.5029V150.282ZM56.8469 153.418H59.0869V154.944H56.8469V153.418ZM48.7129 158.654H57.3649V163.246H55.5029V160.152H48.7129V158.654ZM68.0738 150.282H69.9218V163.246H68.0738V150.282ZM69.5018 155.336H71.7978V156.89H69.5018V155.336ZM59.7018 152.2H67.2478V153.684H59.7018V152.2ZM63.4958 154.412C65.3858 154.412 66.7858 155.7 66.7858 157.506C66.7858 159.312 65.3858 160.6 63.4958 160.6C61.6058 160.6 60.2058 159.312 60.2058 157.506C60.2058 155.7 61.6058 154.412 63.4958 154.412ZM63.4958 155.924C62.6138 155.924 61.9838 156.512 61.9838 157.506C61.9838 158.5 62.6138 159.088 63.4958 159.088C64.3778 159.088 65.0078 158.5 65.0078 157.506C65.0078 156.512 64.3778 155.924 63.4958 155.924ZM62.5578 150.492H64.4198V152.76H62.5578V150.492ZM81.2887 150.282H83.1647V163.246H81.2887V150.282ZM77.4667 151.626H79.3147C79.3147 155.588 77.9707 158.836 73.3647 161.062L72.3987 159.578C76.1227 157.786 77.4667 155.434 77.4667 151.962V151.626ZM73.0847 151.626H78.3487V153.096H73.0847V151.626Z" fill="#12A054"/>
</svg>
