<svg width="375" height="246" viewBox="0 0 375 246" fill="none" xmlns="http://www.w3.org/2000/svg">
<rect x="20" width="335" height="238" rx="15" fill="#12A054"/>
<path fill-rule="evenodd" clip-rule="evenodd" d="M238 204.627C250.171 200.804 259 189.433 259 176C259 159.431 245.569 146 229 146C212.431 146 199 159.431 199 176C199 189.433 207.829 200.804 220 204.627V246H238V204.627Z" fill="#FBFBFB"/>
<mask id="mask0_350_5187" style="mask-type:alpha" maskUnits="userSpaceOnUse" x="209" y="156" width="40" height="40">
<rect x="209" y="156" width="40" height="40" fill="#D9D9D9"/>
</mask>
<g mask="url(#mask0_350_5187)">
<path d="M229.002 193.326C226.609 193.326 224.359 192.874 222.253 191.968C220.147 191.063 218.31 189.827 216.742 188.258C215.173 186.69 213.937 184.854 213.031 182.749C212.126 180.644 211.674 178.395 211.674 176.002C211.674 173.591 212.126 171.332 213.031 169.226C213.937 167.119 215.172 165.287 216.739 163.727C218.306 162.167 220.142 160.933 222.247 160.023C224.353 159.113 226.602 158.658 228.996 158.658C231.409 158.658 233.669 159.113 235.776 160.022C237.884 160.931 239.717 162.164 241.276 163.722C242.834 165.281 244.068 167.113 244.978 169.22C245.887 171.326 246.342 173.586 246.342 176C246.342 178.395 245.887 180.645 244.977 182.751C244.067 184.857 242.833 186.693 241.273 188.26C239.713 189.827 237.881 191.063 235.777 191.968C233.672 192.874 231.414 193.326 229.002 193.326ZM229 189.653C232.808 189.653 236.035 188.328 238.682 185.678C241.33 183.028 242.653 179.802 242.653 176C242.653 172.192 241.33 168.965 238.682 166.318C236.035 163.67 232.805 162.347 228.992 162.347C225.198 162.347 221.975 163.67 219.324 166.318C216.672 168.965 215.347 172.195 215.347 176.008C215.347 179.802 216.672 183.025 219.322 185.676C221.972 188.328 225.198 189.653 229 189.653Z" fill="#12A054"/>
</g>
<path fill-rule="evenodd" clip-rule="evenodd" d="M308 204.627C320.171 200.804 329 189.433 329 176C329 159.431 315.569 146 299 146C282.431 146 269 159.431 269 176C269 189.433 277.829 200.804 290 204.627V246H308V204.627Z" fill="#FBFBFB"/>
<mask id="mask1_350_5187" style="mask-type:alpha" maskUnits="userSpaceOnUse" x="275" y="152" width="48" height="48">
<rect x="275" y="152" width="48" height="48" fill="#D9D9D9"/>
</mask>
<g mask="url(#mask1_350_5187)">
<path d="M299 178.778L288.839 188.939C288.445 189.334 287.982 189.531 287.45 189.531C286.918 189.531 286.455 189.334 286.061 188.939C285.667 188.545 285.47 188.082 285.47 187.55C285.47 187.018 285.667 186.555 286.061 186.161L296.222 176L286.061 165.839C285.667 165.445 285.47 164.982 285.47 164.45C285.47 163.918 285.667 163.455 286.061 163.061C286.455 162.667 286.918 162.47 287.45 162.47C287.982 162.47 288.445 162.667 288.839 163.061L299 173.222L309.161 163.061C309.555 162.667 310.018 162.47 310.55 162.47C311.082 162.47 311.545 162.667 311.939 163.061C312.334 163.455 312.531 163.918 312.531 164.45C312.531 164.982 312.334 165.445 311.939 165.839L301.778 176L311.939 186.161C312.334 186.555 312.531 187.018 312.531 187.55C312.531 188.082 312.334 188.545 311.939 188.939C311.545 189.334 311.082 189.531 310.55 189.531C310.018 189.531 309.555 189.334 309.161 188.939L299 178.778Z" fill="#12A054"/>
</g>
<path d="M55.2 60.33C63.93 60.33 68.97 64.965 68.97 75.9V77.745C68.97 82.695 67.935 86.34 66 88.86L68.61 91.425C69.555 92.37 69.285 93.585 68.34 94.53C67.44 95.43 66.225 95.7 65.28 94.755L62.355 91.875C60.42 92.82 58.035 93.315 55.2 93.315C46.47 93.315 41.43 88.68 41.43 77.745V75.9C41.43 64.965 46.47 60.33 55.2 60.33ZM55.2 65.595C49.935 65.595 47.235 68.205 47.235 76.35V77.295C47.235 85.44 49.935 88.05 55.2 88.05C56.37 88.05 57.36 87.915 58.125 87.69L55.47 85.035C54.525 84.09 54.795 82.875 55.695 81.975C56.64 81.03 57.855 80.76 58.8 81.705L61.815 84.72C62.715 83.01 63.165 80.625 63.165 77.295V76.35C63.165 68.205 60.465 65.595 55.2 65.595ZM76.656 60.555C78.186 60.555 79.536 61.32 79.536 63.03V79.545C79.536 85.935 81.651 88.095 86.376 88.095C91.101 88.095 93.216 85.935 93.216 79.545V63.03C93.216 61.32 94.566 60.555 96.096 60.555C97.626 60.555 98.976 61.32 98.976 63.03V79.455C98.976 90.075 94.521 93.315 86.376 93.315C78.276 93.315 73.776 90.075 73.776 79.455V63.03C73.776 61.32 75.126 60.555 76.656 60.555ZM108.166 60.555C109.696 60.555 111.046 61.32 111.046 63.03V90.615C111.046 92.325 109.696 93.09 108.166 93.09C106.636 93.09 105.286 92.325 105.286 90.615V63.03C105.286 61.32 106.636 60.555 108.166 60.555ZM118.29 60.825H136.56C139.305 60.825 140.385 61.77 140.385 63.93C140.385 64.92 140.25 65.415 138.54 67.575L122.475 87.87H139.35C140.79 87.87 141.42 88.995 141.42 90.345C141.42 91.695 140.79 92.82 139.35 92.82H119.415C116.445 92.82 115.32 91.875 115.32 89.535C115.32 88.545 115.545 87.78 117.795 84.945L132.915 65.775H118.29C116.85 65.775 116.22 64.65 116.22 63.3C116.22 61.95 116.85 60.825 118.29 60.825Z" fill="white"/>
<mask id="mask2_350_5187" style="mask-type:alpha" maskUnits="userSpaceOnUse" x="204" y="68" width="49" height="49">
<rect x="204" y="68" width="49" height="49" fill="#D9D9D9"/>
</mask>
<g mask="url(#mask2_350_5187)">
<path d="M228.598 82.8208C228.352 82.8208 228.137 82.7285 227.952 82.544C227.768 82.3595 227.676 82.1442 227.676 81.8981V78.7376C227.676 77.5964 228.071 76.6305 228.861 75.84C229.652 75.0495 230.618 74.6543 231.759 74.6543H234.919C235.165 74.6543 235.381 74.7466 235.565 74.9311C235.75 75.1156 235.842 75.3309 235.842 75.577V78.7376C235.842 79.8788 235.447 80.8446 234.656 81.6351C233.866 82.4256 232.9 82.8208 231.759 82.8208H228.598ZM217.075 94.0499C215.376 94.0499 213.93 93.4538 212.738 92.2615C211.546 91.0693 210.95 89.6237 210.95 87.925V83.6454C210.95 83.1193 211.126 82.6802 211.478 82.3282C211.83 81.9761 212.269 81.8001 212.795 81.8001H217.075C218.773 81.8001 220.219 82.3962 221.411 83.5885C222.603 84.7807 223.2 86.2262 223.2 87.925V92.2046C223.2 92.7307 223.024 93.1698 222.671 93.5219C222.319 93.8739 221.88 94.0499 221.354 94.0499H217.075ZM236.667 111.384C235.392 111.384 234.177 111.18 233.021 110.772C231.865 110.364 230.82 109.802 229.886 109.088L227.534 111.439C227.251 111.722 226.896 111.867 226.468 111.873C226.04 111.88 225.678 111.735 225.383 111.439C225.087 111.144 224.942 110.782 224.949 110.354C224.955 109.926 225.1 109.571 225.383 109.288L227.734 106.936C227.02 106.001 226.458 104.956 226.05 103.801C225.642 102.645 225.438 101.43 225.438 100.155C225.438 97.0404 226.53 94.385 228.716 92.1889C230.902 89.9928 233.552 88.8948 236.667 88.8948H244.806C245.667 88.8948 246.399 89.1964 247.003 89.7997C247.606 90.4031 247.907 91.1353 247.907 91.9965V100.155C247.907 103.27 246.813 105.92 244.623 108.106C242.434 110.292 239.781 111.384 236.667 111.384ZM231.272 105.55C231.568 105.846 231.926 105.994 232.348 105.994C232.769 105.994 233.128 105.846 233.424 105.55L237.742 101.231C238.038 100.935 238.186 100.577 238.186 100.155C238.186 99.7339 238.038 99.3753 237.742 99.0795C237.447 98.7837 237.088 98.6358 236.667 98.6358C236.245 98.6358 235.887 98.7837 235.591 99.0795L231.272 103.398C230.976 103.694 230.828 104.053 230.828 104.474C230.828 104.896 230.976 105.254 231.272 105.55Z" fill="#9DE49B"/>
</g>
<path d="M55.168 104.952H57.58V117.138H55.168V104.952ZM46.474 119.406H57.994V121.314H46.474V119.406ZM46.474 116.058H48.868V120.522H46.474V116.058ZM47.788 108.228H49.75V108.822C49.75 111.81 48.22 114.456 44.998 115.392L43.864 113.52C46.6 112.728 47.788 110.766 47.788 108.822V108.228ZM48.238 108.228H50.182V108.822C50.182 110.64 51.388 112.494 54.124 113.25L53.008 115.122C49.768 114.222 48.238 111.684 48.238 108.822V108.228ZM44.422 106.86H53.53V108.732H44.422V106.86ZM47.788 105.024H50.182V107.634H47.788V105.024ZM70.7546 104.934H73.1486V117.966H70.7546V104.934ZM72.3026 110.388H75.2366V112.332H72.3026V110.388ZM62.0246 119.406H73.7066V121.314H62.0246V119.406ZM62.0246 117.12H64.4366V119.964H62.0246V117.12ZM63.6986 112.944H66.0926V115.374H63.6986V112.944ZM59.9906 116.346L59.7206 114.51C62.6186 114.51 66.6326 114.456 70.0166 113.952L70.1966 115.59C66.7406 116.238 62.8346 116.31 59.9906 116.346ZM60.1526 106.266H69.6026V107.994H60.1526V106.266ZM64.8866 108.426C67.3346 108.426 68.9366 109.398 68.9366 111.018C68.9366 112.602 67.3346 113.592 64.8866 113.592C62.4386 113.592 60.8186 112.602 60.8186 111.018C60.8186 109.398 62.4386 108.426 64.8866 108.426ZM64.8866 110.028C63.7526 110.028 63.0866 110.352 63.0866 111.018C63.0866 111.648 63.7526 111.972 64.8866 111.972C66.0026 111.972 66.6686 111.648 66.6686 111.018C66.6686 110.352 66.0026 110.028 64.8866 110.028ZM63.6986 104.862H66.0926V107.004H63.6986V104.862ZM84.1452 107.562H88.0512V109.47H84.1452V107.562ZM84.0192 111.018H87.9252V112.926H84.0192V111.018ZM87.6732 104.934H90.0672V114.528H87.6732V104.934ZM82.2372 106.068H84.7932C84.7932 110.604 82.2372 113.52 77.1792 114.906L76.2432 113.016C80.4732 111.918 82.2372 109.83 82.2372 107.22V106.068ZM77.1612 106.068H83.9112V107.976H77.1612V106.068ZM84.5412 114.744C87.9252 114.744 90.1752 116.04 90.1752 118.128C90.1752 120.216 87.9252 121.53 84.5412 121.53C81.1572 121.53 78.9072 120.216 78.9072 118.128C78.9072 116.04 81.1572 114.744 84.5412 114.744ZM84.5412 116.58C82.5072 116.58 81.2832 117.102 81.2832 118.128C81.2832 119.154 82.5072 119.658 84.5412 119.658C86.5932 119.658 87.8172 119.154 87.8172 118.128C87.8172 117.102 86.5932 116.58 84.5412 116.58ZM97.8159 113.52H109.534V115.392H97.8159V113.52ZM96.0519 117.75H111.136V119.694H96.0519V117.75ZM97.8159 106.14H109.39V108.066H100.246V114.042H97.8159V106.14ZM99.5079 109.812H109.012V111.666H99.5079V109.812ZM112.898 113.268H114.05C116.426 113.268 117.956 113.232 119.792 112.908L120.008 114.762C118.136 115.122 116.498 115.158 114.05 115.158H112.898V113.268ZM112.88 106.176H118.748V111.504H115.22V114.132H112.898V109.758H116.426V108.048H112.88V106.176ZM119.324 109.092H122.474V111.018H119.324V109.092ZM124.166 104.934H126.434V117.462H124.166V104.934ZM120.818 105.24H123.05V117.084H120.818V105.24ZM115.22 119.406H126.866V121.314H115.22V119.406ZM115.22 116.256H117.614V120.828H115.22V116.256ZM130.195 112.62H141.913V114.528H130.195V112.62ZM128.449 117.642H143.533V119.604H128.449V117.642ZM130.195 106.302H141.787V108.246H132.571V113.412H130.195V106.302ZM151.732 110.514H154.126V113.574H151.732V110.514ZM157.6 110.514H159.976V113.574H157.6V110.514ZM148.348 112.836H163.414V114.726H148.348V112.836ZM155.854 115.572C159.454 115.572 161.632 116.652 161.632 118.578C161.632 120.522 159.454 121.602 155.854 121.602C152.236 121.602 150.058 120.522 150.058 118.578C150.058 116.652 152.236 115.572 155.854 115.572ZM155.854 117.372C153.622 117.372 152.488 117.75 152.488 118.578C152.488 119.424 153.622 119.802 155.854 119.802C158.086 119.802 159.22 119.424 159.22 118.578C159.22 117.75 158.086 117.372 155.854 117.372ZM155.89 105.168C159.562 105.168 161.92 106.392 161.92 108.39C161.92 110.37 159.562 111.558 155.89 111.558C152.2 111.558 149.86 110.37 149.86 108.39C149.86 106.392 152.2 105.168 155.89 105.168ZM155.89 107.004C153.604 107.004 152.326 107.454 152.326 108.39C152.326 109.308 153.604 109.758 155.89 109.758C158.176 109.758 159.454 109.308 159.454 108.39C159.454 107.454 158.176 107.004 155.89 107.004ZM169.118 106.086C171.602 106.086 173.42 108.39 173.42 112.026C173.42 115.698 171.602 118.002 169.118 118.002C166.616 118.002 164.816 115.698 164.816 112.026C164.816 108.39 166.616 106.086 169.118 106.086ZM169.118 108.264C167.912 108.264 167.102 109.578 167.102 112.026C167.102 114.51 167.912 115.842 169.118 115.842C170.342 115.842 171.134 114.51 171.134 112.026C171.134 109.578 170.342 108.264 169.118 108.264ZM176.156 104.916H178.532V121.638H176.156V104.916ZM172.718 110.928H177.164V112.854H172.718V110.928ZM185.741 106.014H192.869V107.922H185.741V106.014ZM191.789 106.014H194.129V107.058C194.129 108.534 194.129 110.532 193.499 113.502H191.105C191.789 110.568 191.789 108.516 191.789 107.058V106.014ZM192.077 109.344V111.054L185.633 111.594L185.327 109.614L192.077 109.344ZM188.513 113.952H190.925V120.72H188.513V113.952ZM196.253 104.934H198.647V121.602H196.253V104.934ZM184.661 115.158L184.373 113.214C187.685 113.214 191.717 113.16 195.317 112.764L195.497 114.51C191.807 115.068 187.919 115.158 184.661 115.158ZM200.68 117.66H215.764V119.604H200.68V117.66ZM206.944 107.238H208.96V108.192C208.96 111.684 206.44 114.492 202.192 115.266L201.256 113.358C204.964 112.782 206.944 110.496 206.944 108.192V107.238ZM207.43 107.238H209.446V108.192C209.446 110.496 211.426 112.71 215.224 113.268L214.306 115.176C209.986 114.42 207.43 111.684 207.43 108.192V107.238ZM201.922 106.32H214.468V108.228H201.922V106.32Z" fill="white"/>
<path d="M51.184 39.366H52.654V49.376H51.184V39.366ZM52.094 43.706H54.404V44.91H52.094V43.706ZM44.366 50.72H53.102V51.91H44.366V50.72ZM44.366 48.718H45.836V51.07H44.366V48.718ZM45.78 45.568H47.25V47.374H45.78V45.568ZM42.7 48.004L42.532 46.856C44.772 46.856 47.894 46.814 50.512 46.408L50.624 47.43C47.95 47.934 44.912 47.99 42.7 48.004ZM42.854 40.514H50.162V41.592H42.854V40.514ZM46.508 42.04C48.342 42.04 49.546 42.782 49.546 44.014C49.546 45.232 48.342 45.988 46.508 45.988C44.674 45.988 43.47 45.232 43.47 44.014C43.47 42.782 44.674 42.04 46.508 42.04ZM46.508 43.048C45.486 43.048 44.856 43.398 44.856 44.014C44.856 44.616 45.486 44.966 46.508 44.966C47.53 44.966 48.16 44.616 48.16 44.014C48.16 43.398 47.53 43.048 46.508 43.048ZM45.78 39.31H47.25V40.99H45.78V39.31ZM61.0949 41.578H64.3289V42.754H61.0949V41.578ZM60.9829 44.224H64.2449V45.414H60.9829V44.224ZM64.0909 39.366H65.5609V46.898H64.0909V39.366ZM60.0169 40.29H61.5709C61.5709 43.664 59.4429 45.946 55.6769 47.024L55.0889 45.862C58.3509 44.966 60.0169 43.202 60.0169 40.962V40.29ZM55.7749 40.29H61.0249V41.466H55.7749V40.29ZM61.3609 47.052C63.9509 47.052 65.6309 48.004 65.6309 49.572C65.6309 51.14 63.9509 52.106 61.3609 52.106C58.7709 52.106 57.0909 51.14 57.0909 49.572C57.0909 48.004 58.7709 47.052 61.3609 47.052ZM61.3609 48.186C59.6249 48.186 58.5329 48.69 58.5329 49.572C58.5329 50.454 59.6249 50.944 61.3609 50.944C63.1109 50.944 64.1889 50.454 64.1889 49.572C64.1889 48.69 63.1109 48.186 61.3609 48.186ZM73.0498 39.562C75.9198 39.562 77.6138 40.346 77.6138 41.774C77.6138 43.188 75.9198 43.972 73.0498 43.972C70.1798 43.972 68.4998 43.188 68.4998 41.774C68.4998 40.346 70.1798 39.562 73.0498 39.562ZM73.0498 40.654C71.0758 40.654 70.0118 41.046 70.0118 41.774C70.0118 42.502 71.0758 42.88 73.0498 42.88C75.0378 42.88 76.0878 42.502 76.0878 41.774C76.0878 41.046 75.0378 40.654 73.0498 40.654ZM67.2678 44.714H78.8318V45.876H67.2678V44.714ZM68.6398 46.814H77.3898V49.866H70.1098V51.238H68.6538V48.83H75.9478V47.906H68.6398V46.814ZM68.6538 50.916H77.7538V52.05H68.6538V50.916ZM85.4332 41.284H86.6092V43.076C86.6092 45.89 85.1672 48.676 82.9692 49.726L82.1292 48.564C84.1032 47.654 85.4332 45.26 85.4332 43.076V41.284ZM85.7412 41.284H86.9032V43.076C86.9032 45.19 88.2192 47.402 90.2212 48.242L89.4092 49.404C87.1832 48.41 85.7412 45.82 85.7412 43.076V41.284ZM82.5912 40.64H89.7452V41.858H82.5912V40.64ZM91.2432 39.366H92.7132V52.162H91.2432V39.366ZM99.9362 40.654H101.35C101.35 44.462 100.16 47.85 95.4562 50.16L94.6722 49.026C98.6762 47.052 99.9362 44.364 99.9362 40.822V40.654ZM95.4002 40.654H100.664V41.83H95.4002V40.654ZM99.8242 43.804V44.938L94.9662 45.386L94.7562 44.126L99.8242 43.804ZM103.59 39.366H105.06V52.162H103.59V39.366ZM115.909 39.366H117.379V52.162H115.909V39.366ZM112.157 40.724H113.599C113.599 44.518 112.087 47.738 107.691 49.88L106.921 48.704C110.603 46.926 112.157 44.392 112.157 40.976V40.724ZM107.551 40.724H112.815V41.9H107.551V40.724ZM125.884 39.926C127.802 39.926 129.188 41.018 129.188 42.6C129.188 44.182 127.802 45.288 125.884 45.288C123.966 45.288 122.58 44.182 122.58 42.6C122.58 41.018 123.966 39.926 125.884 39.926ZM125.884 41.13C124.778 41.13 123.994 41.704 123.994 42.6C123.994 43.51 124.778 44.07 125.884 44.07C126.99 44.07 127.788 43.51 127.788 42.6C127.788 41.704 126.99 41.13 125.884 41.13ZM125.212 46.646H126.682V51.77H125.212V46.646ZM130.84 39.366H132.296V52.162H130.84V39.366ZM121.908 47.43L121.726 46.212C124.036 46.212 127.242 46.184 130.014 45.764L130.112 46.842C127.27 47.388 124.19 47.416 121.908 47.43ZM142.557 39.38H144.027V48.956H142.557V39.38ZM143.593 43.44H145.833V44.658H143.593V43.44ZM134.059 40.836H141.591V41.998H134.059V40.836ZM137.825 42.586C139.645 42.586 140.919 43.566 140.919 45.008C140.919 46.464 139.645 47.43 137.825 47.43C135.991 47.43 134.717 46.464 134.717 45.008C134.717 43.566 135.991 42.586 137.825 42.586ZM137.825 43.72C136.817 43.72 136.131 44.21 136.131 45.008C136.131 45.82 136.817 46.296 137.825 46.296C138.833 46.296 139.519 45.82 139.519 45.008C139.519 44.21 138.833 43.72 137.825 43.72ZM137.097 39.366H138.553V41.41H137.097V39.366ZM135.935 50.72H144.545V51.91H135.935V50.72ZM135.935 48.214H137.405V51.224H135.935V48.214ZM158.035 39.366H159.505V52.162H158.035V39.366ZM154.283 40.724H155.725C155.725 44.518 154.213 47.738 149.817 49.88L149.047 48.704C152.729 46.926 154.283 44.392 154.283 40.976V40.724ZM149.677 40.724H154.941V41.9H149.677V40.724ZM161.268 49.418H172.86V50.622H161.268V49.418ZM166.322 46.716H167.778V50.048H166.322V46.716ZM166.308 42.04H167.61V42.32C167.61 44.854 165.426 46.674 162.318 47.15L161.772 45.988C164.544 45.61 166.308 44.07 166.308 42.32V42.04ZM166.504 42.04H167.792V42.32C167.792 44.07 169.556 45.61 172.328 45.988L171.782 47.15C168.688 46.674 166.504 44.854 166.504 42.32V42.04ZM162.29 41.256H171.796V42.446H162.29V41.256ZM166.322 39.59H167.778V41.718H166.322V39.59ZM178.901 43.678H180.357V46.058H178.901V43.678ZM183.507 43.678H184.963V46.058H183.507V43.678ZM176.157 45.582H187.721V46.744H176.157V45.582ZM181.925 47.57C184.669 47.57 186.335 48.396 186.335 49.852C186.335 51.322 184.669 52.148 181.925 52.148C179.167 52.148 177.515 51.322 177.515 49.852C177.515 48.396 179.167 47.57 181.925 47.57ZM181.925 48.69C180.049 48.69 178.999 49.096 178.999 49.852C178.999 50.622 180.049 51.028 181.925 51.028C183.801 51.028 184.851 50.622 184.851 49.852C184.851 49.096 183.801 48.69 181.925 48.69ZM181.939 39.576C184.739 39.576 186.503 40.486 186.503 41.998C186.503 43.51 184.739 44.392 181.939 44.392C179.139 44.392 177.389 43.51 177.389 41.998C177.389 40.486 179.139 39.576 181.939 39.576ZM181.939 40.71C180.035 40.71 178.901 41.158 178.901 41.998C178.901 42.824 180.035 43.272 181.939 43.272C183.857 43.272 184.991 42.824 184.991 41.998C184.991 41.158 183.857 40.71 181.939 40.71ZM191.934 40.304C193.824 40.304 195.168 42.054 195.168 44.812C195.168 47.57 193.824 49.334 191.934 49.334C190.044 49.334 188.7 47.57 188.7 44.812C188.7 42.054 190.044 40.304 191.934 40.304ZM191.934 41.634C190.842 41.634 190.1 42.824 190.1 44.812C190.1 46.814 190.842 48.018 191.934 48.018C193.04 48.018 193.782 46.814 193.782 44.812C193.782 42.824 193.04 41.634 191.934 41.634ZM197.646 39.352H199.102V52.176H197.646V39.352ZM194.72 44.126H198.276V45.302H194.72V44.126Z" fill="#9DE49B"/>
<rect x="44" y="141" width="71" height="30" rx="15" fill="#DCF8DB"/>
<path d="M57.724 151.276H59.236V153.166C59.236 156.498 58.088 159.508 55.512 160.698L54.406 159.158C56.66 158.178 57.724 155.686 57.724 153.166V151.276ZM58.088 151.276H59.6V153.166C59.6 155.56 60.622 157.94 62.834 158.892L61.742 160.39C59.236 159.242 58.088 156.358 58.088 153.166V151.276ZM63.45 150.268H65.326V163.274H63.45V150.268ZM70.0429 151.612H71.5689V152.424C71.5689 154.874 70.4069 157.072 67.9289 157.87L66.9629 156.428C69.1329 155.728 70.0429 154.048 70.0429 152.424V151.612ZM70.4209 151.612H71.9329V152.424C71.9329 153.95 72.8149 155.532 74.9149 156.204L73.9629 157.646C71.5409 156.862 70.4209 154.748 70.4209 152.424V151.612ZM67.4669 151.038H74.4669V152.522H67.4669V151.038ZM75.5029 150.282H77.3649V158.094H75.5029V150.282ZM76.8469 153.418H79.0869V154.944H76.8469V153.418ZM68.7129 158.654H77.3649V163.246H75.5029V160.152H68.7129V158.654ZM88.0738 150.282H89.9218V163.246H88.0738V150.282ZM89.5018 155.336H91.7978V156.89H89.5018V155.336ZM79.7018 152.2H87.2478V153.684H79.7018V152.2ZM83.4958 154.412C85.3858 154.412 86.7858 155.7 86.7858 157.506C86.7858 159.312 85.3858 160.6 83.4958 160.6C81.6058 160.6 80.2058 159.312 80.2058 157.506C80.2058 155.7 81.6058 154.412 83.4958 154.412ZM83.4958 155.924C82.6138 155.924 81.9838 156.512 81.9838 157.506C81.9838 158.5 82.6138 159.088 83.4958 159.088C84.3778 159.088 85.0078 158.5 85.0078 157.506C85.0078 156.512 84.3778 155.924 83.4958 155.924ZM82.5578 150.492H84.4198V152.76H82.5578V150.492ZM101.289 150.282H103.165V163.246H101.289V150.282ZM97.4667 151.626H99.3147C99.3147 155.588 97.9707 158.836 93.3647 161.062L92.3987 159.578C96.1227 157.786 97.4667 155.434 97.4667 151.962V151.626ZM93.0847 151.626H98.3487V153.096H93.0847V151.626Z" fill="#12A054"/>
</svg>
