<svg width="355" height="70" viewBox="0 0 355 70" fill="none" xmlns="http://www.w3.org/2000/svg">
<path fill-rule="evenodd" clip-rule="evenodd" d="M43.9145 39.0657C49.0688 39.0657 51.8473 36.3639 51.8473 32.4982C51.8473 28.6325 49.5354 26 44.3812 26C40.1568 26 37.8417 28.1709 35.0887 30.7525C34.9477 30.8847 34.8056 31.018 34.662 31.1521C33.8548 31.9061 33.767 33.1773 34.5024 34.0015C37.1481 36.9663 39.4786 39.0657 43.9145 39.0657ZM37.7418 32.6809C38.2593 32.0186 39.2255 31.3496 40.4029 30.8431C41.5702 30.341 42.847 30.0412 43.9153 30.0412C45.6918 30.0412 46.8084 30.4974 47.3916 30.7356C47.4953 30.778 47.5821 30.8135 47.6528 30.8383C48.0698 30.9845 48.5263 30.7651 48.6725 30.3482C48.8188 29.9313 48.5993 29.4747 48.1824 29.3285C48.1401 29.3136 48.0789 29.2882 47.9992 29.2551L47.9992 29.2551C47.4532 29.0282 46.0408 28.4412 43.9153 28.4412C42.5823 28.4412 41.0891 28.8062 39.7707 29.3733C38.4625 29.936 37.2275 30.7405 36.481 31.6958C36.209 32.044 36.2707 32.5467 36.6189 32.8188C36.967 33.0908 37.4698 33.0291 37.7418 32.6809Z" fill="#1EB65B"/>
<mask id="mask0_1009_5381" style="mask-type:alpha" maskUnits="userSpaceOnUse" x="91" y="16" width="33" height="33">
<rect x="91" y="16" width="33" height="33" fill="#D9D9D9"/>
</mask>
<g mask="url(#mask0_1009_5381)">
<path d="M107.994 42.7533C107.762 42.7533 107.568 42.6654 107.411 42.4895C107.254 42.3136 107.176 42.0957 107.176 41.8357V33.0425C106.082 33.0425 105.033 32.8104 104.03 32.3461C103.026 31.8817 102.14 31.2182 101.37 30.3554C100.6 29.4927 100.013 28.4989 99.6077 27.3742C99.2026 26.2495 99 25.0738 99 23.8471V23.0941C99 22.7841 99.0935 22.5243 99.2806 22.3145C99.4677 22.1048 99.6995 22 99.9761 22H100.648C101.718 22 102.755 22.2341 103.758 22.7024C104.76 23.1706 105.647 23.8361 106.416 24.6989C106.987 25.3389 107.456 26.0538 107.822 26.8436C108.188 27.6335 108.45 28.4723 108.608 29.3602C108.734 29.1155 108.874 28.8837 109.029 28.6648C109.183 28.446 109.356 28.2299 109.546 28.0166C110.313 27.1552 111.2 26.4901 112.206 26.0211C113.212 25.5522 114.261 25.3177 115.352 25.3177H116.024C116.3 25.3177 116.532 25.4225 116.719 25.6323C116.906 25.842 117 26.1018 117 26.4118V27.1648C117 28.3881 116.791 29.5636 116.372 30.6913C115.954 31.819 115.361 32.813 114.592 33.6731C113.823 34.5359 112.941 35.1943 111.946 35.6484C110.952 36.1026 109.908 36.3297 108.813 36.3297V41.8357C108.813 42.0957 108.735 42.3136 108.578 42.4895C108.421 42.6654 108.226 42.7533 107.994 42.7533Z" fill="#1EB65B"/>
</g>
<path fill-rule="evenodd" clip-rule="evenodd" d="M179.04 32.6113C179.415 32.0174 179.418 31.2433 179.418 30.4783C179.418 26.8778 175.335 27.5988 175.335 27.5988C175.335 27.5988 175.427 24.6223 172.087 24.6223C169.003 24.6223 168.657 27.5596 168.657 27.5596C168.657 27.5596 164.546 27.1944 164.546 30.8134C164.54 31.3771 164.683 31.9331 164.959 32.4311L163.663 32.9996C163.224 32.276 162.995 31.4534 163 30.617C163 28.3892 164.621 26.062 167.595 26.062C168.222 24.1878 169.941 23 172.099 23C174.641 23 176.015 24.5068 176.51 26.0597C179.154 26.0597 180.999 28.1835 180.999 30.5315C181.016 31.5538 180.714 32.558 180.131 33.4156L179.04 32.6113ZM170.28 36.5007C170.299 32.297 172.215 32.7454 172.457 29.9907L173.207 29.8867C174.634 31.9828 175.03 33.9817 173.985 36.6047C175.378 36.161 175.642 34.0441 179.285 34.2937L179.613 34.4162C179.613 34.4162 178.612 38.7354 173.291 39.5628L172.723 42.6364L169.772 42.158L170.667 39.6159C166.35 39.0359 164.313 34.2313 164.313 34.2313L164.875 33.6998C166.628 35.0471 168.464 34.1042 170.28 36.5007Z" fill="#12A054"/>
<mask id="mask1_1009_5381" style="mask-type:alpha" maskUnits="userSpaceOnUse" x="220" y="18" width="30" height="30">
<rect x="220" y="18" width="30" height="30" fill="#1EB65B"/>
</mask>
<g mask="url(#mask1_1009_5381)">
<path d="M235 32.4045C235.714 32.4045 236.318 32.1652 236.811 31.6868C237.304 31.2083 237.551 30.6226 237.551 29.9296C237.551 29.2367 237.304 28.6509 236.811 28.1725C236.318 27.694 235.714 27.4548 235 27.4548C234.286 27.4548 233.682 27.694 233.189 28.1725C232.696 28.6509 232.449 29.2367 232.449 29.9296C232.449 30.6226 232.696 31.2083 233.189 31.6868C233.682 32.1652 234.286 32.4045 235 32.4045ZM235 36.8592C234.337 36.8592 233.737 36.6819 233.202 36.3271C232.666 35.9724 232.279 35.5063 232.041 34.9288C231.956 34.9288 231.88 34.933 231.812 34.9412C231.744 34.9495 231.667 34.9536 231.582 34.9536C230.698 34.9536 229.941 34.6483 229.312 34.0379C228.683 33.4274 228.368 32.6932 228.368 31.8353C228.368 31.4888 228.428 31.1547 228.547 30.8329C228.666 30.5112 228.844 30.2101 229.082 29.9296C228.861 29.6491 228.691 29.348 228.572 29.0263C228.453 28.7046 228.394 28.3704 228.394 28.024C228.394 27.166 228.704 26.4318 229.325 25.8213C229.945 25.2109 230.698 24.9056 231.582 24.9056C231.667 24.9056 231.744 24.9098 231.812 24.918C231.88 24.9263 231.956 24.9304 232.041 24.9304C232.279 24.3529 232.666 23.8868 233.202 23.5321C233.737 23.1774 234.337 23 235 23C235.663 23 236.263 23.1774 236.798 23.5321C237.334 23.8868 237.721 24.3529 237.959 24.9304C238.044 24.9304 238.12 24.9263 238.188 24.918C238.256 24.9098 238.333 24.9056 238.418 24.9056C239.302 24.9056 240.055 25.2109 240.675 25.8213C241.296 26.4318 241.606 27.166 241.606 28.024C241.606 28.3704 241.551 28.7046 241.44 29.0263C241.33 29.348 241.156 29.6491 240.918 29.9296C241.139 30.2101 241.309 30.5112 241.428 30.8329C241.547 31.1547 241.606 31.4888 241.606 31.8353C241.606 32.6932 241.296 33.4274 240.675 34.0379C240.055 34.6483 239.302 34.9536 238.418 34.9536C238.333 34.9536 238.256 34.9495 238.188 34.9412C238.12 34.933 238.044 34.9288 237.959 34.9288C237.721 35.5063 237.334 35.9724 236.798 36.3271C236.263 36.6819 235.663 36.8592 235 36.8592ZM235 43.7641C235 41.6852 235.646 39.8456 236.939 38.2451C238.231 36.6447 239.872 35.6053 241.861 35.1268C242.184 35.0443 242.503 35.0155 242.818 35.0402C243.132 35.0649 243.409 35.1928 243.647 35.4238C243.851 35.6383 243.966 35.894 243.991 36.191C244.017 36.488 243.987 36.7767 243.902 37.0572C243.426 39.0041 242.359 40.6086 240.701 41.8708C239.043 43.133 237.143 43.7641 235 43.7641ZM235 43.7888C235 41.71 234.354 39.8703 233.061 38.2699C231.769 36.6695 230.128 35.63 228.139 35.1516C227.816 35.0691 227.497 35.0402 227.182 35.0649C226.868 35.0897 226.591 35.2176 226.353 35.4486C226.149 35.663 226.034 35.9188 226.009 36.2158C225.983 36.5127 226.013 36.8015 226.098 37.082C226.574 39.0289 227.641 40.6334 229.299 41.8956C230.957 43.1577 232.857 43.7888 235 43.7888Z" fill="#1EB65B"/>
</g>
<mask id="mask2_1009_5381" style="mask-type:alpha" maskUnits="userSpaceOnUse" x="288" y="20" width="25" height="25">
<rect x="288" y="20" width="25" height="25" fill="#D9D9D9"/>
</mask>
<g mask="url(#mask2_1009_5381)">
<path d="M294.87 30.8791L293.417 31.615C293.172 31.743 292.913 31.7777 292.638 31.719C292.364 31.6604 292.169 31.5244 292.052 31.3111L290.144 28.2874C290.004 28.0635 289.966 27.8555 290.03 27.6635C290.094 27.4716 290.243 27.3116 290.477 27.1836L296.481 24H298.214C298.395 24 298.539 24.0493 298.647 24.148C298.755 24.2466 298.809 24.3786 298.809 24.5439V24.9439C298.809 25.5251 299.018 26.0064 299.435 26.3877C299.852 26.769 300.379 26.9596 301.015 26.9596C301.651 26.9596 302.174 26.769 302.586 26.3877C302.997 26.0064 303.203 25.5251 303.203 24.9439V24.5439C303.203 24.3786 303.257 24.2466 303.365 24.148C303.473 24.0493 303.617 24 303.798 24H305.531L311.535 27.1836C311.768 27.3116 311.914 27.4716 311.973 27.6635C312.031 27.8555 311.996 28.0635 311.868 28.2874L309.942 31.3111C309.825 31.5244 309.611 31.6617 309.299 31.723C308.987 31.7843 308.723 31.7563 308.507 31.639L307.071 30.8551V40.334C307.071 40.5953 306.968 40.8179 306.761 41.0019C306.553 41.1858 306.307 41.2778 306.021 41.2778H295.903C295.617 41.2778 295.374 41.1858 295.172 41.0019C294.971 40.8179 294.87 40.5953 294.87 40.334V30.8791Z" fill="#1EB65B"/>
</g>
<rect x="12" y="4" width="319" height="10" rx="5" fill="#1EB65B"/>
<rect x="12" y="4" width="255" height="10" rx="5" fill="#9DE49B"/>
<rect x="12" y="4" width="189" height="10" rx="5" fill="#1EB65B"/>
<rect x="12" y="4" width="127" height="10" rx="5" fill="#9DE49B"/>
<rect x="12" y="4" width="63" height="10" rx="5" fill="#1EB65B"/>
<path d="M3.42 14.168C1.68 14.168 0.564 12.62 0.564 9.548C0.564 6.5 1.68 5.012 3.42 5.012C5.148 5.012 6.276 6.5 6.276 9.548C6.276 12.62 5.148 14.168 3.42 14.168ZM3.42 13.064C4.32 13.064 4.944 12.104 4.944 9.548C4.944 7.028 4.32 6.092 3.42 6.092C2.52 6.092 1.884 7.028 1.884 9.548C1.884 12.104 2.52 13.064 3.42 13.064Z" fill="#9E9E9E"/>
<path d="M337.216 14.168C335.824 14.168 334.948 13.604 334.312 12.98L334.984 12.08C335.476 12.584 336.124 13.028 337.048 13.028C338.044 13.028 338.788 12.32 338.788 11.144C338.788 9.98 338.116 9.308 337.108 9.308C336.556 9.308 336.22 9.464 335.704 9.8L335.02 9.368L335.284 5.168H339.772V6.344H336.496L336.292 8.6C336.664 8.408 337.024 8.3 337.504 8.3C338.98 8.3 340.192 9.164 340.192 11.108C340.192 13.052 338.752 14.168 337.216 14.168ZM344.264 14.168C342.524 14.168 341.408 12.62 341.408 9.548C341.408 6.5 342.524 5.012 344.264 5.012C345.992 5.012 347.12 6.5 347.12 9.548C347.12 12.62 345.992 14.168 344.264 14.168ZM344.264 13.064C345.164 13.064 345.788 12.104 345.788 9.548C345.788 7.028 345.164 6.092 344.264 6.092C343.364 6.092 342.728 7.028 342.728 9.548C342.728 12.104 343.364 13.064 344.264 13.064ZM351.108 14.168C349.368 14.168 348.252 12.62 348.252 9.548C348.252 6.5 349.368 5.012 351.108 5.012C352.836 5.012 353.964 6.5 353.964 9.548C353.964 12.62 352.836 14.168 351.108 14.168ZM351.108 13.064C352.008 13.064 352.632 12.104 352.632 9.548C352.632 7.028 352.008 6.092 351.108 6.092C350.208 6.092 349.572 7.028 349.572 9.548C349.572 12.104 350.208 13.064 351.108 13.064Z" fill="#9E9E9E"/>
<path d="M40.496 57.028H41.768V67.996H40.496V57.028ZM34.016 57.952H34.94V60.148C34.94 62.128 34.58 64.408 33.164 65.524L32.36 64.636C33.716 63.616 34.016 61.696 34.016 60.148V57.952ZM34.304 57.952H35.204V60.148C35.204 61.612 35.444 63.628 36.824 64.72L36.14 65.656C34.604 64.504 34.304 62.032 34.304 60.148V57.952ZM37.076 57.952H37.976V60.148C37.976 62.08 37.676 64.516 36.14 65.656L35.444 64.72C36.824 63.652 37.076 61.672 37.076 60.148V57.952ZM37.352 57.952H38.276V60.148C38.276 61.732 38.576 63.628 39.932 64.636L39.164 65.56C37.7 64.456 37.352 62.164 37.352 60.148V57.952ZM50.8871 57.028H52.1471V64.288H50.8871V57.028ZM51.7991 59.908H53.6951V60.94H51.7991V59.908ZM48.1271 63.772H49.2071V64.072C49.2071 66.088 47.4791 67.528 45.0671 67.948L44.5751 66.964C46.7111 66.64 48.1271 65.464 48.1271 64.072V63.772ZM48.3071 63.772H49.3751V64.072C49.3751 65.464 50.8151 66.64 52.9271 66.964L52.4471 67.948C50.0351 67.528 48.3071 66.088 48.3071 64.072V63.772ZM46.6391 57.76C48.3071 57.76 49.5551 58.84 49.5551 60.4C49.5551 61.948 48.3071 63.04 46.6391 63.04C44.9711 63.04 43.7351 61.948 43.7351 60.4C43.7351 58.84 44.9711 57.76 46.6391 57.76ZM46.6391 58.828C45.6671 58.828 44.9591 59.44 44.9591 60.4C44.9591 61.36 45.6671 61.984 46.6391 61.984C47.6111 61.984 48.3311 61.36 48.3311 60.4C48.3311 59.44 47.6111 58.828 46.6391 58.828Z" fill="#3C3C3C"/>
<path d="M98.724 58.024H99.696V60.004C99.696 62.38 98.844 64.684 97.176 65.704L96.384 64.768C97.956 63.844 98.724 61.876 98.724 60.004V58.024ZM98.952 58.024H99.936V59.92C99.936 61.768 100.632 63.592 102.12 64.408L101.376 65.404C99.696 64.444 98.952 62.26 98.952 59.92V58.024ZM104.712 57.028H105.912V67.996H104.712V57.028ZM103.152 61.372H105.132V62.392H103.152V61.372ZM102.312 57.232H103.5V67.468H102.312V57.232ZM109.091 57.664H109.991V58.564C109.991 60.172 109.559 62.068 108.119 62.944L107.435 62.044C108.695 61.276 109.091 59.764 109.091 58.564V57.664ZM109.391 57.664H110.279V58.564C110.279 59.68 110.531 61.276 111.767 62.128L111.167 63.064C109.691 62.116 109.391 60.064 109.391 58.564V57.664ZM112.055 57.664H112.943V58.564C112.943 60.124 112.631 62.14 111.167 63.064L110.567 62.128C111.803 61.288 112.055 59.728 112.055 58.564V57.664ZM112.331 57.664H113.243V58.564C113.243 59.848 113.627 61.3 114.887 62.044L114.203 62.944C112.763 62.092 112.331 60.268 112.331 58.564V57.664ZM115.163 57.028H116.423V63.484H115.163V57.028ZM115.787 59.728H117.671V60.772H115.787V59.728ZM108.935 63.988H116.423V67.996H115.163V64.996H108.935V63.988Z" fill="#3C3C3C"/>
<path d="M161.788 57.472H169.192V61.264H161.788V57.472ZM167.956 58.468H163.024V60.268H167.956V58.468ZM160.54 62.488H170.452V63.496H160.54V62.488ZM164.872 61.024H166.12V62.812H164.872V61.024ZM161.644 64.48H169.24V67.996H167.992V65.476H161.644V64.48ZM174.291 63.544H175.551V65.32H174.291V63.544ZM178.899 57.028H180.159V67.996H178.899V57.028ZM179.739 61.6H181.719V62.644H179.739V61.6ZM171.627 66.028L171.459 64.996C173.391 64.996 176.043 64.984 178.287 64.66L178.383 65.584C176.043 66.016 173.511 66.028 171.627 66.028ZM171.651 58.3H178.167V59.296H171.651V58.3ZM174.915 59.848C176.463 59.848 177.543 60.664 177.543 61.888C177.543 63.124 176.463 63.928 174.915 63.928C173.367 63.928 172.299 63.124 172.299 61.888C172.299 60.664 173.367 59.848 174.915 59.848ZM174.915 60.808C174.051 60.808 173.487 61.228 173.487 61.888C173.487 62.56 174.051 62.968 174.915 62.968C175.779 62.968 176.355 62.56 176.355 61.888C176.355 61.228 175.779 60.808 174.915 60.808ZM174.291 57.064H175.551V59.008H174.291V57.064Z" fill="#3C3C3C"/>
<path d="M234.604 57.424H237.7V58.432H234.604V57.424ZM229.564 61.588H239.44V62.608H229.564V61.588ZM234.076 59.86H235.324V62.248H234.076V59.86ZM237.184 57.424H238.408V57.952C238.408 58.612 238.408 59.656 238.084 61.012L236.872 60.868C237.184 59.5 237.184 58.6 237.184 57.952V57.424ZM230.38 57.424H233.14V58.432H230.38V57.424ZM232.516 57.424H233.74V57.916C233.74 58.576 233.74 59.656 233.2 61.024L231.976 60.832C232.516 59.416 232.516 58.54 232.516 57.916V57.424ZM233.86 64.552H234.928V64.732C234.928 66.376 233.212 67.648 230.8 67.948L230.368 67C232.444 66.772 233.86 65.776 233.86 64.732V64.552ZM234.064 64.552H235.132V64.732C235.132 65.776 236.548 66.772 238.624 67L238.192 67.948C235.78 67.648 234.064 66.388 234.064 64.732V64.552ZM230.812 63.988H238.18V64.972H230.812V63.988ZM233.86 62.98H235.132V64.36H233.86V62.98Z" fill="#3C3C3C"/>
<path d="M295.54 62.356H305.452V63.352H295.54V62.356ZM299.86 64H300.94V64.276C300.94 66.22 299.2 67.576 296.74 67.96L296.26 66.988C298.444 66.688 299.86 65.596 299.86 64.276V64ZM300.052 64H301.132V64.276C301.132 65.596 302.548 66.688 304.732 66.988L304.252 67.96C301.792 67.576 300.052 66.22 300.052 64.276V64ZM299.86 61.072H301.108V62.74H299.86V61.072ZM300.496 57.232C302.896 57.232 304.408 58.012 304.408 59.332C304.408 60.64 302.896 61.432 300.496 61.432C298.108 61.432 296.596 60.64 296.596 59.332C296.596 58.012 298.108 57.232 300.496 57.232ZM300.496 58.204C298.864 58.204 297.892 58.612 297.892 59.332C297.892 60.052 298.864 60.448 300.496 60.448C302.128 60.448 303.112 60.052 303.112 59.332C303.112 58.612 302.128 58.204 300.496 58.204Z" fill="#3C3C3C"/>
</svg>
