<svg width="375" height="204" viewBox="0 0 375 204" fill="none" xmlns="http://www.w3.org/2000/svg">
<g opacity="0.8">
<rect x="65.5" y="0.5" width="74" height="38" rx="19" fill="white"/>
<rect x="65.5" y="0.5" width="74" height="38" rx="19" stroke="#E2E2E2"/>
<path d="M76.98 12.8H78.42V15.88H83.88V12.8H85.34V21.66H76.98V12.8ZM78.42 17.06V20.46H83.88V17.06H78.42ZM89.26 11.54H90.74V24.84H89.26V11.54ZM79.12 27.88H91.18V29.12H79.12V27.88ZM79.12 23.5H80.6V28.42H79.12V23.5ZM95.1984 23.9H96.5984C100.018 23.9 102.358 23.8 105.118 23.32L105.278 24.54C102.438 25.04 100.078 25.14 96.5984 25.14H95.1984V23.9ZM95.1984 13.16H103.838V14.4H96.6584V24.34H95.1984V13.16ZM96.2784 18.24H103.198V19.44H96.2784V18.24ZM107.278 11.52H108.738V29.52H107.278V11.52ZM116.857 14.04H118.077V17.12C118.077 20.88 115.657 24.64 112.897 26.04L112.037 24.86C114.557 23.64 116.857 20.24 116.857 17.12V14.04ZM117.137 14.04H118.357V17.12C118.357 20.2 120.637 23.3 123.217 24.42L122.377 25.6C119.557 24.28 117.137 20.84 117.137 17.12V14.04ZM112.597 13.38H122.657V14.62H112.597V13.38ZM125.237 11.52H126.717V29.52H125.237V11.52Z" fill="#BABABA"/>
<rect x="150.5" y="0.5" width="74" height="38" rx="19" fill="#DCF8DB"/>
<rect x="150.5" y="0.5" width="74" height="38" rx="19" stroke="#1EB65B"/>
<path d="M168 12.54H169.82V13.92C169.82 17.88 166.5 21.16 162.38 22.04L161.46 20.3C165.08 19.64 168 16.8 168 13.92V12.54ZM168.4 12.54H170.22V13.92C170.22 16.84 173.14 19.64 176.76 20.3L175.84 22.04C171.72 21.16 168.4 17.92 168.4 13.92V12.54ZM160.92 25.58H177.48V27.3H160.92V25.58ZM180.958 21.04H193.638V22.7H180.958V21.04ZM178.918 25.7H195.478V27.42H178.918V25.7ZM180.958 12.84H193.458V14.54H183.078V21.52H180.958V12.84ZM182.418 16.9H193.058V18.54H182.418V16.9ZM209.877 11.38H211.977V23.8H209.877V11.38ZM197.857 20.16H199.377C202.997 20.16 205.317 20.06 207.997 19.58L208.217 21.26C205.457 21.76 203.077 21.86 199.377 21.86H197.857V20.16ZM197.817 12.52H206.157V17.9H199.897V20.94H197.857V16.32H204.097V14.22H197.817V12.52ZM204.857 22.88H206.637V23.3C206.637 26.62 203.717 28.96 199.657 29.6L198.877 27.98C202.437 27.48 204.857 25.58 204.857 23.3V22.88ZM205.237 22.88H207.017V23.3C207.017 25.58 209.397 27.48 212.977 27.98L212.177 29.6C208.137 28.94 205.237 26.62 205.237 23.3V22.88Z" fill="#12A054"/>
<rect x="235.5" y="0.5" width="74" height="38" rx="19" fill="white"/>
<rect x="235.5" y="0.5" width="74" height="38" rx="19" stroke="#E2E2E2"/>
<path d="M259.84 11.52H261.28V29.52H259.84V11.52ZM256.8 18.88H260.34V20.1H256.8V18.88ZM252.5 13.7H253.94C253.94 18.3 252.5 22.76 247.04 25.78L246.18 24.7C251.08 22.04 252.5 18.14 252.5 13.92V13.7ZM247.04 13.7H253.1V14.92H247.04V13.7ZM255.86 11.96H257.26V28.62H255.86V11.96ZM252.26 17.8V18.92L246.38 19.52L246.14 18.22L252.26 17.8ZM271.338 13.26H272.618V14.06C272.618 17.28 269.038 19.62 265.598 20.22L265.018 19.04C268.038 18.58 271.338 16.52 271.338 14.06V13.26ZM271.698 13.26H272.978V14.06C272.978 16.52 276.278 18.58 279.298 19.04L278.738 20.22C275.258 19.62 271.698 17.28 271.698 14.06V13.26ZM271.398 22.6H272.858V29.5H271.398V22.6ZM264.018 21.82H280.298V23.06H264.018V21.82ZM265.558 12.66H278.718V13.88H265.558V12.66ZM295.297 11.52H296.777V20.7H295.297V11.52ZM290.957 15.58H296.037V16.8H290.957V15.58ZM286.917 12.14C289.597 12.14 291.537 13.82 291.537 16.22C291.537 18.62 289.597 20.32 286.917 20.32C284.237 20.32 282.317 18.62 282.317 16.22C282.317 13.82 284.237 12.14 286.917 12.14ZM286.917 13.36C285.077 13.36 283.737 14.58 283.737 16.22C283.737 17.88 285.077 19.1 286.917 19.1C288.757 19.1 290.117 17.88 290.117 16.22C290.117 14.58 288.757 13.36 286.917 13.36ZM285.237 21.72H296.777V25.98H286.737V28.76H285.277V24.84H295.317V22.92H285.237V21.72ZM285.277 28.08H297.477V29.28H285.277V28.08Z" fill="#BABABA"/>
<rect x="-5.5" y="55.5" width="92" height="38" rx="19" fill="white"/>
<rect x="-5.5" y="55.5" width="92" height="38" rx="19" stroke="#E2E2E2"/>
<path d="M12.42 76.7H13.88V81.24H12.42V76.7ZM13.14 67.74C16.94 67.74 19.66 69.58 19.66 72.42C19.66 75.26 16.94 77.08 13.14 77.08C9.36 77.08 6.64 75.26 6.64 72.42C6.64 69.58 9.36 67.74 13.14 67.74ZM13.14 68.94C10.22 68.94 8.06 70.34 8.06 72.42C8.06 74.5 10.22 75.9 13.14 75.9C16.08 75.9 18.24 74.5 18.24 72.42C18.24 70.34 16.08 68.94 13.14 68.94ZM5.02 80.94H21.36V82.18H5.02V80.94ZM36.2784 66.52H37.7384V84.52H36.2784V66.52ZM23.4584 68.5H33.6784V69.72H23.4584V68.5ZM23.1784 80L22.9984 78.74C26.3584 78.74 30.7984 78.7 34.6384 78.24L34.7184 79.32C30.8184 79.94 26.4784 80 23.1784 80ZM25.5384 69.4H26.9784V79.08H25.5384V69.4ZM30.1584 69.4H31.5984V79.08H30.1584V69.4ZM48.3369 67.78H49.6169V69.18C49.6169 73.1 45.8169 76.08 42.4169 76.88L41.7569 75.64C44.7369 75.06 48.3369 72.34 48.3369 69.18V67.78ZM48.5969 67.78H49.8769V69.18C49.8769 72.34 53.4969 75.06 56.4769 75.64L55.7969 76.88C52.4369 76.08 48.5969 73.1 48.5969 69.18V67.78ZM41.0169 80.82H57.3569V82.06H41.0169V80.82ZM58.9953 76.1H75.3353V77.32H58.9953V76.1ZM61.0953 66.98H73.2153V71.26H62.5953V73.78H61.1353V70.16H71.7553V68.16H61.0953V66.98ZM61.1353 73.28H73.5953V74.46H61.1353V73.28ZM66.4353 76.8H67.8953V79.92H66.4353V76.8ZM60.8153 79.32H73.3153V84.52H71.8353V80.54H60.8153V79.32Z" fill="#BABABA"/>
<rect x="98.5" y="55.5" width="92" height="38" rx="19" fill="white"/>
<rect x="98.5" y="55.5" width="92" height="38" rx="19" stroke="#E2E2E2"/>
<path d="M113.8 67.92C116.44 67.92 118.28 70.36 118.28 74.18C118.28 77.98 116.44 80.44 113.8 80.44C111.18 80.44 109.32 77.98 109.32 74.18C109.32 70.36 111.18 67.92 113.8 67.92ZM113.8 69.24C111.98 69.24 110.72 71.22 110.72 74.18C110.72 77.14 111.98 79.12 113.8 79.12C115.62 79.12 116.88 77.14 116.88 74.18C116.88 71.22 115.62 69.24 113.8 69.24ZM121.32 66.52H122.82V84.52H121.32V66.52ZM122.46 73.78H125.82V75.04H122.46V73.78ZM127.698 68.64H134.518V79.64H127.698V68.64ZM133.118 69.82H129.078V78.46H133.118V69.82ZM140.858 66.52H142.298V84.52H140.858V66.52ZM133.778 73.34H137.938V74.58H133.778V73.34ZM137.318 66.92H138.718V83.6H137.318V66.92ZM152.837 68.4H154.277C154.277 73.56 152.457 78.36 146.037 81.52L145.237 80.36C150.957 77.56 152.837 73.44 152.837 68.56V68.4ZM146.197 68.4H153.717V69.62H146.197V68.4ZM152.517 72.88V74.04L145.537 74.7L145.297 73.38L152.517 72.88ZM157.317 66.5H158.817V84.52H157.317V66.5ZM158.417 73.9H161.757V75.14H158.417V73.9ZM167.855 69.04H169.075V72.12C169.075 75.88 166.655 79.64 163.895 81.04L163.035 79.86C165.555 78.64 167.855 75.24 167.855 72.12V69.04ZM168.135 69.04H169.355V72.12C169.355 75.2 171.635 78.3 174.215 79.42L173.375 80.6C170.555 79.28 168.135 75.84 168.135 72.12V69.04ZM163.595 68.38H173.655V69.62H163.595V68.38ZM176.235 66.52H177.715V84.52H176.235V66.52Z" fill="#BABABA"/>
<rect x="202.5" y="55.5" width="74" height="38" rx="19" fill="white"/>
<rect x="202.5" y="55.5" width="74" height="38" rx="19" stroke="#E2E2E2"/>
<path d="M213.02 81.02H229.36V82.26H213.02V81.02ZM220.42 77.08H221.88V81.54H220.42V77.08ZM215.04 67.88H227.3V73.24H216.54V76.94H215.08V72.04H225.84V69.1H215.04V67.88ZM215.08 76.32H227.72V77.52H215.08V76.32ZM231.858 68.34H238.778V76.44H231.858V68.34ZM237.378 69.5H233.238V75.26H237.378V69.5ZM244.738 66.54H246.158V79.94H244.738V66.54ZM241.718 71.86H245.218V73.1H241.718V71.86ZM240.878 66.86H242.278V79.3H240.878V66.86ZM234.478 82.88H246.718V84.12H234.478V82.88ZM234.478 78.32H235.978V83.48H234.478V78.32ZM251.757 78.4H263.737V84.52H262.257V79.62H251.757V78.4ZM262.257 66.52H263.737V77.5H262.257V66.52ZM250.077 75.2H251.517C255.417 75.2 257.557 75.12 260.097 74.7L260.277 75.9C257.637 76.34 255.457 76.42 251.517 76.42H250.077V75.2ZM250.077 67.76H258.617V68.98H251.537V75.68H250.077V67.76ZM251.057 71.42H258.117V72.62H251.057V71.42Z" fill="#BABABA"/>
<rect x="288.5" y="55.5" width="92" height="38" rx="19" fill="white"/>
<rect x="288.5" y="55.5" width="92" height="38" rx="19" stroke="#E2E2E2"/>
<path d="M299.02 80.94H315.36V82.18H299.02V80.94ZM306.42 76.16H307.88V81.3H306.42V76.16ZM300.96 68.04H313.32V76.46H300.96V68.04ZM311.88 69.24H302.4V75.26H311.88V69.24ZM318.038 75.76H319.378C322.718 75.76 324.838 75.66 327.318 75.16L327.478 76.38C324.938 76.86 322.778 76.98 319.378 76.98H318.038V75.76ZM318.038 68.04H326.298V69.28H319.498V76.16H318.038V68.04ZM330.298 66.52H331.778V79.68H330.298V66.52ZM325.118 71.56H330.658V72.76H325.118V71.56ZM320.338 83.02H332.278V84.24H320.338V83.02ZM320.338 78.7H321.818V83.68H320.338V78.7ZM339.837 68.1H341.057V71.44C341.057 75.48 338.717 79.28 335.857 80.74L334.937 79.52C337.537 78.28 339.837 74.84 339.837 71.44V68.1ZM340.077 68.1H341.297V71.44C341.297 74.72 343.577 78.04 346.157 79.24L345.257 80.42C342.457 79 340.077 75.36 340.077 71.44V68.1ZM348.237 66.5H349.717V84.54H348.237V66.5ZM354.975 68.4H366.415V69.62H354.975V68.4ZM353.015 80.72H369.295V81.96H353.015V80.72ZM365.795 68.4H367.235V70.62C367.235 73.28 367.235 75.72 366.475 79.36L364.995 79.22C365.795 75.78 365.795 73.24 365.795 70.62V68.4ZM366.155 73.38V74.5L354.735 75.12L354.495 73.88L366.155 73.38Z" fill="#BABABA"/>
<rect x="-28.5" y="110.5" width="92" height="38" rx="19" fill="white"/>
<rect x="-28.5" y="110.5" width="92" height="38" rx="19" stroke="#E2E2E2"/>
<path d="M-17.98 135.94H-1.64V137.18H-17.98V135.94ZM-10.58 131.16H-9.12V136.3H-10.58V131.16ZM-16.04 123.04H-3.68V131.46H-16.04V123.04ZM-5.12 124.24H-14.6V130.26H-5.12V124.24ZM1.03844 130.76H2.37844C5.71844 130.76 7.83844 130.66 10.3184 130.16L10.4784 131.38C7.93844 131.86 5.77844 131.98 2.37844 131.98H1.03844V130.76ZM1.03844 123.04H9.29844V124.28H2.49844V131.16H1.03844V123.04ZM13.2984 121.52H14.7784V134.68H13.2984V121.52ZM8.11844 126.56H13.6584V127.76H8.11844V126.56ZM3.33844 138.02H15.2784V139.24H3.33844V138.02ZM3.33844 133.7H4.81844V138.68H3.33844V133.7ZM22.8369 123.1H24.0569V126.44C24.0569 130.48 21.7169 134.28 18.8569 135.74L17.9369 134.52C20.5369 133.28 22.8369 129.84 22.8369 126.44V123.1ZM23.0769 123.1H24.2969V126.44C24.2969 129.72 26.5769 133.04 29.1569 134.24L28.2569 135.42C25.4569 134 23.0769 130.36 23.0769 126.44V123.1ZM31.2369 121.5H32.7169V139.54H31.2369V121.5ZM37.9753 123.4H49.4153V124.62H37.9753V123.4ZM36.0153 135.72H52.2953V136.96H36.0153V135.72ZM48.7953 123.4H50.2353V125.62C50.2353 128.28 50.2353 130.72 49.4753 134.36L47.9953 134.22C48.7953 130.78 48.7953 128.24 48.7953 125.62V123.4ZM49.1553 128.38V129.5L37.7353 130.12L37.4953 128.88L49.1553 128.38Z" fill="#BABABA"/>
<rect x="74.5" y="110.5" width="92" height="38" rx="19" fill="#DCF8DB"/>
<rect x="74.5" y="110.5" width="92" height="38" rx="19" stroke="#1EB65B"/>
<path d="M90.94 122.58H92.98C92.98 127.14 90.98 130.5 85.96 132.58L84.96 131.06C89.3 129.34 90.94 126.7 90.94 123.22V122.58ZM85.84 122.58H91.62V124.26H85.84V122.58ZM90.9 125.9V127.34L85.32 127.94L85.04 126.24L90.9 125.9ZM98.4 121.38H100.38V132.12H98.4V121.38ZM95.8 125.84H99.02V127.56H95.8V125.84ZM94.4 121.72H96.36V131.98H94.4V121.72ZM88.22 132.92H100.38V139.44H88.22V132.92ZM98.34 134.58H90.28V137.76H98.34V134.58ZM103.318 123.16H113.418V124.86H103.318V123.16ZM103.018 135.32L102.798 133.58C105.998 133.58 110.318 133.52 113.918 133.1L114.058 134.64C110.378 135.24 106.158 135.32 103.018 135.32ZM105.018 124.52H107.058V134.02H105.018V124.52ZM109.478 124.52H111.518V134.02H109.478V124.52ZM115.998 121.38H118.078V139.66H115.998V121.38ZM112.838 128.16H117.478V129.86H112.838V128.16ZM127.997 122.54H129.817V123.92C129.817 127.88 126.497 131.16 122.377 132.04L121.457 130.3C125.077 129.64 127.997 126.8 127.997 123.92V122.54ZM128.397 122.54H130.217V123.92C130.217 126.84 133.137 129.64 136.757 130.3L135.837 132.04C131.717 131.16 128.397 127.92 128.397 123.92V122.54ZM120.917 135.58H137.477V137.3H120.917V135.58ZM138.895 131H155.455V132.66H138.895V131ZM140.975 121.8H153.375V126.46H143.075V128.7H140.995V124.94H151.315V123.4H140.975V121.8ZM140.995 128.06H153.755V129.68H140.995V128.06ZM146.135 131.84H148.215V135.16H146.135V131.84ZM140.735 134.36H153.495V139.66H151.395V136.04H140.735V134.36Z" fill="#12A054"/>
<rect x="177.5" y="110.5" width="56" height="38" rx="19" fill="white"/>
<rect x="177.5" y="110.5" width="56" height="38" rx="19" stroke="#E2E2E2"/>
<path d="M201.26 121.54H202.74V131.76H201.26V121.54ZM191.18 132.84H202.74V139.28H191.18V132.84ZM201.3 134.04H192.62V138.06H201.3V134.04ZM192.8 122.24H194.02V123.98C194.02 127.34 191.9 130.16 188.94 131.3L188.2 130.12C190.86 129.14 192.8 126.68 192.8 123.98V122.24ZM193.06 122.24H194.28V123.98C194.28 126.58 196.26 128.88 198.88 129.78L198.14 130.94C195.2 129.9 193.06 127.24 193.06 123.98V122.24ZM207.538 122.08H220.718V123.24H207.538V122.08ZM207.598 126.88H220.658V128.02H207.598V126.88ZM210.338 122.5H211.818V127.64H210.338V122.5ZM216.458 122.5H217.918V127.64H216.458V122.5ZM206.018 129.62H222.278V130.82H206.018V129.62ZM207.998 132.5H220.178V136.38H209.498V138.64H208.058V135.28H218.718V133.64H207.998V132.5ZM208.058 138.16H220.738V139.32H208.058V138.16Z" fill="#BABABA"/>
<rect x="244.5" y="110.5" width="74" height="38" rx="19" fill="white"/>
<rect x="244.5" y="110.5" width="74" height="38" rx="19" stroke="#E2E2E2"/>
<path d="M268.3 121.5H269.78V139.54H268.3V121.5ZM264.78 128.5H268.68V129.74H264.78V128.5ZM255.7 133.94H257.06C260.28 133.94 262.54 133.86 265.2 133.36L265.32 134.6C262.62 135.08 260.34 135.2 257.06 135.2H255.7V133.94ZM255.66 123.22H263.68V129.44H257.16V134.34H255.7V128.22H262.24V124.44H255.66V123.22ZM275.198 121.84H276.658V123.6H285.678V121.84H287.158V127.76H275.198V121.84ZM276.658 124.76V126.6H285.678V124.76H276.658ZM273.018 129.38H289.278V130.58H273.018V129.38ZM274.998 132.32H287.178V136.24H276.498V138.56H275.058V135.14H285.718V133.46H274.998V132.32ZM275.058 138.14H287.738V139.32H275.058V138.14ZM304.277 121.5H305.737V139.54H304.277V121.5ZM292.077 133.92H293.557C296.537 133.92 299.237 133.8 302.497 133.28L302.657 134.5C299.337 135.04 296.617 135.16 293.557 135.16H292.077V133.92ZM292.037 123.22H300.317V129.56H293.557V134.4H292.077V128.34H298.837V124.44H292.037V123.22Z" fill="#BABABA"/>
<rect x="329.5" y="110.5" width="74" height="38" rx="19" fill="white"/>
<rect x="329.5" y="110.5" width="74" height="38" rx="19" stroke="#E2E2E2"/>
<path d="M344.3 132.62H345.8V139.52H344.3V132.62ZM350.48 132.62H351.98V139.52H350.48V132.62ZM340 131.8H356.34V133.04H340V131.8ZM348.14 122.26C351.88 122.26 354.4 123.76 354.4 126.16C354.4 128.54 351.88 130.06 348.14 130.06C344.4 130.06 341.88 128.54 341.88 126.16C341.88 123.76 344.4 122.26 348.14 122.26ZM348.14 123.44C345.32 123.44 343.38 124.52 343.38 126.16C343.38 127.8 345.32 128.86 348.14 128.86C350.96 128.86 352.88 127.8 352.88 126.16C352.88 124.52 350.96 123.44 348.14 123.44ZM371.238 121.52H372.698V139.52H371.238V121.52ZM359.198 123.28H360.658V134.44H359.198V123.28ZM359.198 133.56H360.658C363.418 133.56 366.238 133.34 369.298 132.7L369.478 133.98C366.338 134.62 363.518 134.84 360.658 134.84H359.198V133.56ZM377.977 123.4H389.417V124.62H377.977V123.4ZM376.017 135.72H392.297V136.96H376.017V135.72ZM388.797 123.4H390.237V125.62C390.237 128.28 390.237 130.72 389.477 134.36L387.997 134.22C388.797 130.78 388.797 128.24 388.797 125.62V123.4ZM389.157 128.38V129.5L377.737 130.12L377.497 128.88L389.157 128.38Z" fill="#BABABA"/>
<rect x="46.5" y="165.5" width="92" height="38" rx="19" fill="white"/>
<rect x="46.5" y="165.5" width="92" height="38" rx="19" stroke="#E2E2E2"/>
<path d="M64.42 186.7H65.88V191.24H64.42V186.7ZM65.14 177.74C68.94 177.74 71.66 179.58 71.66 182.42C71.66 185.26 68.94 187.08 65.14 187.08C61.36 187.08 58.64 185.26 58.64 182.42C58.64 179.58 61.36 177.74 65.14 177.74ZM65.14 178.94C62.22 178.94 60.06 180.34 60.06 182.42C60.06 184.5 62.22 185.9 65.14 185.9C68.08 185.9 70.24 184.5 70.24 182.42C70.24 180.34 68.08 178.94 65.14 178.94ZM57.02 190.94H73.36V192.18H57.02V190.94ZM88.2784 176.52H89.7384V194.52H88.2784V176.52ZM75.4584 178.5H85.6784V179.72H75.4584V178.5ZM75.1784 190L74.9984 188.74C78.3584 188.74 82.7984 188.7 86.6384 188.24L86.7184 189.32C82.8184 189.94 78.4784 190 75.1784 190ZM77.5384 179.4H78.9784V189.08H77.5384V179.4ZM82.1584 179.4H83.5984V189.08H82.1584V179.4ZM100.337 177.78H101.617V179.18C101.617 183.1 97.8169 186.08 94.4169 186.88L93.7569 185.64C96.7369 185.06 100.337 182.34 100.337 179.18V177.78ZM100.597 177.78H101.877V179.18C101.877 182.34 105.497 185.06 108.477 185.64L107.797 186.88C104.437 186.08 100.597 183.1 100.597 179.18V177.78ZM93.0169 190.82H109.357V192.06H93.0169V190.82ZM110.995 186.1H127.335V187.32H110.995V186.1ZM113.095 176.98H125.215V181.26H114.595V183.78H113.135V180.16H123.755V178.16H113.095V176.98ZM113.135 183.28H125.595V184.46H113.135V183.28ZM118.435 186.8H119.895V189.92H118.435V186.8ZM112.815 189.32H125.315V194.52H123.835V190.54H112.815V189.32Z" fill="#BABABA"/>
<rect x="150.5" y="165.5" width="92" height="38" rx="19" fill="white"/>
<rect x="150.5" y="165.5" width="92" height="38" rx="19" stroke="#E2E2E2"/>
<path d="M165.8 177.92C168.44 177.92 170.28 180.36 170.28 184.18C170.28 187.98 168.44 190.44 165.8 190.44C163.18 190.44 161.32 187.98 161.32 184.18C161.32 180.36 163.18 177.92 165.8 177.92ZM165.8 179.24C163.98 179.24 162.72 181.22 162.72 184.18C162.72 187.14 163.98 189.12 165.8 189.12C167.62 189.12 168.88 187.14 168.88 184.18C168.88 181.22 167.62 179.24 165.8 179.24ZM173.32 176.52H174.82V194.52H173.32V176.52ZM174.46 183.78H177.82V185.04H174.46V183.78ZM179.698 178.64H186.518V189.64H179.698V178.64ZM185.118 179.82H181.078V188.46H185.118V179.82ZM192.858 176.52H194.298V194.52H192.858V176.52ZM185.778 183.34H189.938V184.58H185.778V183.34ZM189.318 176.92H190.718V193.6H189.318V176.92ZM204.837 178.4H206.277C206.277 183.56 204.457 188.36 198.037 191.52L197.237 190.36C202.957 187.56 204.837 183.44 204.837 178.56V178.4ZM198.197 178.4H205.717V179.62H198.197V178.4ZM204.517 182.88V184.04L197.537 184.7L197.297 183.38L204.517 182.88ZM209.317 176.5H210.817V194.52H209.317V176.5ZM210.417 183.9H213.757V185.14H210.417V183.9ZM219.855 179.04H221.075V182.12C221.075 185.88 218.655 189.64 215.895 191.04L215.035 189.86C217.555 188.64 219.855 185.24 219.855 182.12V179.04ZM220.135 179.04H221.355V182.12C221.355 185.2 223.635 188.3 226.215 189.42L225.375 190.6C222.555 189.28 220.135 185.84 220.135 182.12V179.04ZM215.595 178.38H225.655V179.62H215.595V178.38ZM228.235 176.52H229.715V194.52H228.235V176.52Z" fill="#BABABA"/>
<rect x="254.5" y="165.5" width="74" height="38" rx="19" fill="#DCF8DB"/>
<rect x="254.5" y="165.5" width="74" height="38" rx="19" stroke="#1EB65B"/>
<path d="M264.92 190.8H281.48V192.52H264.92V190.8ZM272.12 187.08H274.2V191.5H272.12V187.08ZM266.86 177.66H279.5V183.44H268.98V186.84H266.9V181.78H277.42V179.34H266.86V177.66ZM266.9 185.98H279.92V187.68H266.9V185.98ZM283.638 178.18H290.778V186.62H283.638V178.18ZM288.818 179.8H285.598V185H288.818V179.8ZM296.398 176.4H298.378V189.98H296.398V176.4ZM293.778 181.66H296.978V183.38H293.778V181.66ZM292.498 176.72H294.458V189.36H292.498V176.72ZM286.298 192.6H298.898V194.3H286.298V192.6ZM286.298 188.32H288.398V193.5H286.298V188.32ZM303.657 188.32H315.977V194.66H313.877V190H303.657V188.32ZM313.877 176.38H315.977V187.48H313.877V176.38ZM301.937 184.92H303.457C307.317 184.92 309.497 184.86 312.037 184.44L312.257 186.08C309.637 186.52 307.377 186.6 303.457 186.6H301.937V184.92ZM301.937 177.6H310.677V179.28H304.017V185.5H301.937V177.6ZM303.357 181.24H310.157V182.88H303.357V181.24Z" fill="#12A054"/>
</g>
</svg>
