<svg width="36" height="36" viewBox="0 0 36 36" fill="none" xmlns="http://www.w3.org/2000/svg">
<path d="M16.1347 19.1686V24.7215C16.1347 25.1472 16.2782 25.5041 16.5652 25.7921C16.8523 26.0801 17.2113 26.2241 17.6423 26.2241C18.0734 26.2241 18.4308 26.0811 18.7144 25.795C18.9981 25.5089 19.1399 25.1505 19.1399 24.7198V19.1686H24.7215C25.1472 19.1686 25.5041 19.0251 25.7921 18.7381C26.0801 18.4511 26.2241 18.092 26.2241 17.661C26.2241 17.2299 26.0811 16.8725 25.795 16.5889C25.5089 16.3052 25.1505 16.1634 24.7198 16.1634H19.1399V10.381C19.1399 9.95531 18.9964 9.59843 18.7094 9.31042C18.4224 9.02243 18.0633 8.87844 17.6323 8.87844C17.2012 8.87844 16.8439 9.02147 16.5602 9.30754C16.2765 9.5936 16.1347 9.95201 16.1347 10.3828V16.1634H10.381C9.9553 16.1634 9.59843 16.3069 9.31041 16.5939C9.02243 16.8809 8.87844 17.24 8.87844 17.671C8.87844 18.1021 9.02147 18.4595 9.30753 18.7431C9.59359 19.0268 9.952 19.1686 10.3828 19.1686H16.1347ZM17.5598 35.0479C15.138 35.0479 12.8654 34.5896 10.742 33.6729C8.61859 32.7564 6.7648 31.506 5.18067 29.9219C3.59654 28.3377 2.34619 26.4835 1.4296 24.3593C0.512993 22.2351 0.0546875 19.9613 0.0546875 17.5379C0.0546875 15.1145 0.512993 12.8403 1.4296 10.7155C2.34619 8.59061 3.59618 6.74077 5.1796 5.16596C6.76301 3.59116 8.617 2.34444 10.7416 1.42582C12.8661 0.507174 15.1403 0.0478516 17.5641 0.0478516C19.9879 0.0478516 22.2625 0.506988 24.3879 1.42526C26.5133 2.34357 28.3632 3.58982 29.9377 5.16403C31.5121 6.7382 32.7586 8.58935 33.677 10.7175C34.5955 12.8456 35.0547 15.121 35.0547 17.5437C35.0547 19.9661 34.5954 22.239 33.6767 24.3623C32.7581 26.4857 31.5114 28.3374 29.9366 29.9174C28.3618 31.4975 26.5107 32.7475 24.3834 33.6677C22.2561 34.5878 19.9816 35.0479 17.5598 35.0479Z" fill="#E2E2E2"/>
</svg>
