<svg width="24" height="24" viewBox="0 0 24 24" fill="none" xmlns="http://www.w3.org/2000/svg">
<mask id="mask0_862_5311" style="mask-type:alpha" maskUnits="userSpaceOnUse" x="0" y="0" width="24" height="24">
<rect width="24" height="24" fill="#D9D9D9"/>
</mask>
<g mask="url(#mask0_862_5311)">
<path d="M9.54986 14.6694L17.7705 6.44873C18.0364 6.18278 18.3517 6.0498 18.7162 6.0498C19.0807 6.0498 19.3959 6.18278 19.6618 6.44873C19.9278 6.71468 20.0607 7.0299 20.0607 7.3944C20.0607 7.75889 19.9278 8.0741 19.6618 8.34005L10.4901 17.5118C10.2241 17.7777 9.91073 17.9107 9.54986 17.9107C9.18899 17.9107 8.87558 17.7777 8.60963 17.5118L4.33788 13.2401C4.07195 12.9741 3.94079 12.6589 3.94441 12.2944C3.94803 11.9299 4.08281 11.6147 4.34876 11.3487C4.61471 11.0828 4.92993 10.9498 5.29443 10.9498C5.65892 10.9498 5.97413 11.0828 6.24008 11.3487L9.54986 14.6694Z" fill="#FF3B3B"/>
</g>
</svg>
