<svg width="15" height="15" viewBox="0 0 15 15" fill="none" xmlns="http://www.w3.org/2000/svg">
<path d="M6.37956 9.19435L4.54553 7.36034C4.43622 7.25103 4.29883 7.19511 4.13334 7.19258C3.96785 7.19004 3.82792 7.24596 3.71356 7.36034C3.59919 7.47471 3.542 7.61337 3.542 7.77632C3.542 7.93926 3.59919 8.07792 3.71356 8.19229L5.88005 10.3588C6.02277 10.5015 6.18927 10.5729 6.37956 10.5729C6.56983 10.5729 6.73633 10.5015 6.87904 10.3588L11.2712 5.96658C11.3806 5.85728 11.4365 5.71988 11.439 5.5544C11.4416 5.38891 11.3856 5.24898 11.2712 5.13461C11.1569 5.02024 11.0182 4.96306 10.8553 4.96306C10.6923 4.96306 10.5537 5.02024 10.4393 5.13461L6.37956 9.19435ZM7.50132 15C6.464 15 5.48897 14.8032 4.57624 14.4095C3.66348 14.0158 2.86952 13.4815 2.19435 12.8066C1.51916 12.1318 0.984641 11.3381 0.590785 10.4258C0.196928 9.51347 0 8.53864 0 7.50132C0 6.464 0.196843 5.48897 0.590528 4.57624C0.984213 3.66348 1.51849 2.86952 2.19336 2.19435C2.86824 1.51916 3.66186 0.984642 4.5742 0.590785C5.48653 0.196929 6.46136 0 7.49868 0C8.536 0 9.51103 0.196844 10.4238 0.590529C11.3365 0.984214 12.1305 1.51849 12.8057 2.19336C13.4808 2.86824 14.0154 3.66186 14.4092 4.5742C14.8031 5.48653 15 6.46136 15 7.49868C15 8.536 14.8032 9.51102 14.4095 10.4238C14.0158 11.3365 13.4815 12.1305 12.8066 12.8057C12.1318 13.4808 11.3381 14.0154 10.4258 14.4092C9.51347 14.8031 8.53864 15 7.50132 15ZM7.5 13.8158C9.26316 13.8158 10.7566 13.204 11.9803 11.9803C13.204 10.7566 13.8158 9.26316 13.8158 7.5C13.8158 5.73684 13.204 4.24341 11.9803 3.01973C10.7566 1.79604 9.26316 1.18419 7.5 1.18419C5.73684 1.18419 4.24341 1.79604 3.01972 3.01973C1.79604 4.24341 1.18419 5.73684 1.18419 7.5C1.18419 9.26316 1.79604 10.7566 3.01972 11.9803C4.24341 13.204 5.73684 13.8158 7.5 13.8158Z" fill="#BABABA"/>
</svg>
