<svg width="21" height="18" viewBox="0 0 21 18" fill="none" xmlns="http://www.w3.org/2000/svg">
<path d="M5.14418 0C7.98634 0 10.4983 1.66704 10.4983 4.5C10.4983 1.66704 12.5904 0 15.4325 0C18.2747 0 20.5767 2.29646 20.5767 5.12942C20.5767 9.39914 16.4177 10.9053 10.7925 17.7017C10.7306 17.7764 10.6534 17.8364 10.5663 17.8775C10.4792 17.9187 10.3844 17.94 10.2884 17.94C10.1924 17.94 10.0975 17.9187 10.0104 17.8775C9.92336 17.8364 9.84616 17.7764 9.78423 17.7017C4.15907 10.9053 0 9.39914 0 5.12942C0 2.29646 2.30202 0 5.14418 0Z" fill="#FF3B3B"/>
<path d="M10.2796 17.9395C10.0477 17.9395 9.81473 17.8978 9.58075 17.8145C9.34675 17.7312 9.14087 17.6006 8.96313 17.4228L7.40717 16.0083C5.48663 14.2569 3.77197 12.5364 2.26318 10.8468C0.754395 9.15724 0 7.34718 0 5.41664C0 3.87916 0.518319 2.59201 1.55496 1.55521C2.5916 0.518403 3.87854 0 5.41578 0C6.28924 0 7.15195 0.201393 8.00391 0.604176C8.85585 1.00696 9.61788 1.66113 10.29 2.56669C10.9621 1.66113 11.7241 1.00696 12.5761 0.604176C13.4281 0.201393 14.2908 0 15.1642 0C16.7015 0 17.9884 0.518403 19.025 1.55521C20.0617 2.59201 20.58 3.87916 20.58 5.41664C20.58 7.36801 19.8128 9.19821 18.2783 10.9072C16.7438 12.6163 15.033 14.3222 13.1458 16.0249L11.6064 17.4228C11.4287 17.6006 11.2211 17.7312 10.9836 17.8145C10.7462 17.8978 10.5115 17.9395 10.2796 17.9395ZM9.51096 4.21249C8.92496 3.31942 8.30804 2.66491 7.66022 2.24895C7.0124 1.83296 6.26425 1.62497 5.41578 1.62497C4.33262 1.62497 3.42998 1.98608 2.70787 2.70831C1.98577 3.43053 1.62471 4.33331 1.62471 5.41664C1.62471 6.28609 1.90487 7.19511 2.46519 8.14372C3.02551 9.09232 3.72886 10.0354 4.57524 10.9728C5.42164 11.9103 6.33851 12.8263 7.32585 13.7208C8.31319 14.6152 9.22832 15.4465 10.0713 16.2145C10.1338 16.2701 10.2067 16.2979 10.29 16.2979C10.3733 16.2979 10.4462 16.2701 10.5087 16.2145C11.3517 15.4465 12.2668 14.6152 13.2542 13.7208C14.2415 12.8263 15.1584 11.9103 16.0048 10.9728C16.8511 10.0354 17.5545 9.09232 18.1148 8.14372C18.6751 7.19511 18.9553 6.28609 18.9553 5.41664C18.9553 4.33331 18.5942 3.43053 17.8721 2.70831C17.15 1.98608 16.2474 1.62497 15.1642 1.62497C14.3157 1.62497 13.5676 1.83296 12.9198 2.24895C12.272 2.66491 11.655 3.31942 11.069 4.21249C10.9774 4.35137 10.8621 4.45554 10.7233 4.525C10.5844 4.59444 10.44 4.62917 10.29 4.62917C10.14 4.62917 9.99561 4.59444 9.85674 4.525C9.71787 4.45554 9.60262 4.35137 9.51096 4.21249Z" fill="#FF3B3B"/>
</svg>
