<svg width="21" height="18" viewBox="0 0 21 18" fill="none" xmlns="http://www.w3.org/2000/svg">
<path d="M10.6977 17.9395C10.4658 17.9395 10.2328 17.8978 9.99878 17.8145C9.76474 17.7312 9.55884 17.6006 9.38106 17.4228L7.82485 16.0083C5.90401 14.2569 4.18908 12.5364 2.68005 10.8468C1.17102 9.15724 0.416504 7.34718 0.416504 5.41664C0.416504 3.87916 0.934906 2.59201 1.97171 1.55521C3.00851 0.518403 4.29566 0 5.83314 0C6.70674 0 7.56959 0.201393 8.42169 0.604176C9.27377 1.00696 10.0359 1.66113 10.7081 2.56669C11.3804 1.66113 12.1425 1.00696 12.9946 0.604176C13.8467 0.201393 14.7095 0 15.5831 0C17.1206 0 18.4078 0.518403 19.4446 1.55521C20.4814 2.59201 20.9998 3.87916 20.9998 5.41664C20.9998 7.36801 20.2324 9.19821 18.6977 10.9072C17.163 12.6163 15.4519 14.3222 13.5644 16.0249L12.0248 17.4228C11.847 17.6006 11.6394 17.7312 11.4019 17.8145C11.1644 17.8978 10.9297 17.9395 10.6977 17.9395ZM9.92898 4.21249C9.34288 3.31942 8.72587 2.66491 8.07795 2.24895C7.43002 1.83296 6.68176 1.62497 5.83314 1.62497C4.74981 1.62497 3.84703 1.98608 3.12481 2.70831C2.40259 3.43053 2.04148 4.33331 2.04148 5.41664C2.04148 6.28609 2.32168 7.19511 2.88209 8.14372C3.4425 9.09232 4.14596 10.0354 4.99248 10.9728C5.83901 11.9103 6.75603 12.8263 7.74352 13.7208C8.73102 14.6152 9.6463 15.4465 10.4894 16.2146C10.5519 16.2701 10.6248 16.2979 10.7081 16.2979C10.7915 16.2979 10.8644 16.2701 10.9269 16.2146C11.77 15.4465 12.6853 14.6152 13.6728 13.7208C14.6603 12.8263 15.5773 11.9103 16.4238 10.9728C17.2703 10.0354 17.9738 9.09232 18.5342 8.14372C19.0946 7.19511 19.3748 6.28609 19.3748 5.41664C19.3748 4.33331 19.0137 3.43053 18.2915 2.70831C17.5693 1.98608 16.6665 1.62497 15.5831 1.62497C14.7345 1.62497 13.9863 1.83296 13.3383 2.24895C12.6904 2.66491 12.0734 3.31942 11.4873 4.21249C11.3956 4.35137 11.2804 4.45554 11.1415 4.525C11.0026 4.59444 10.8581 4.62917 10.7081 4.62917C10.5582 4.62917 10.4137 4.59444 10.2748 4.525C10.1359 4.45554 10.0207 4.35137 9.92898 4.21249Z" fill="#9E9E9E"/>
</svg>
