<svg width="22" height="22" viewBox="0 0 22 22" fill="none" xmlns="http://www.w3.org/2000/svg">
<mask id="mask0_237_3713" style="mask-type:alpha" maskUnits="userSpaceOnUse" x="0" y="0" width="22" height="22">
<rect width="22" height="22" fill="#D9D9D9"/>
</mask>
<g mask="url(#mask0_237_3713)">
<path d="M10.9897 16.1467C11.2515 16.1467 11.4725 16.0564 11.6529 15.8757C11.8333 15.6949 11.9235 15.4737 11.9235 15.212C11.9235 14.9502 11.8332 14.7292 11.6524 14.5488C11.4717 14.3684 11.2505 14.2782 10.9887 14.2782C10.727 14.2782 10.5059 14.3685 10.3256 14.5493C10.1452 14.73 10.055 14.9512 10.055 15.2129C10.055 15.4747 10.1453 15.6958 10.326 15.8762C10.5068 16.0565 10.728 16.1467 10.9897 16.1467ZM11.0013 19.7076C9.79691 19.7076 8.6648 19.4791 7.60501 19.022C6.5452 18.5649 5.62333 17.9445 4.83938 17.1609C4.05542 16.3773 3.43478 15.4558 2.97747 14.3965C2.52016 13.3372 2.2915 12.2053 2.2915 11.0009C2.2915 9.79642 2.52006 8.66431 2.97717 7.60452C3.43428 6.54472 4.05464 5.62284 4.83823 4.83889C5.62185 4.05493 6.54332 3.43429 7.60265 2.97698C8.66196 2.51967 9.79384 2.29102 10.9983 2.29102C12.2027 2.29102 13.3348 2.51957 14.3946 2.97668C15.4544 3.43379 16.3763 4.05415 17.1603 4.83775C17.9442 5.62136 18.5649 6.54283 19.0222 7.60216C19.4795 8.66148 19.7081 9.79335 19.7081 10.9978C19.7081 12.2022 19.4796 13.3343 19.0225 14.3941C18.5653 15.4539 17.945 16.3758 17.1614 17.1598C16.3778 17.9437 15.4563 18.5644 14.397 19.0217C13.3377 19.479 12.2058 19.7076 11.0013 19.7076ZM10.9998 18.3327C13.047 18.3327 14.7811 17.6222 16.2019 16.2014C17.6227 14.7806 18.3331 13.0465 18.3331 10.9993C18.3331 8.9521 17.6227 7.21808 16.2019 5.79724C14.7811 4.37641 13.047 3.66599 10.9998 3.66599C8.95259 3.66599 7.21856 4.37641 5.79773 5.79724C4.3769 7.21808 3.66648 8.9521 3.66648 10.9993C3.66648 13.0465 4.3769 14.7806 5.79773 16.2014C7.21856 17.6222 8.95259 18.3327 10.9998 18.3327ZM11.0741 7.07528C11.497 7.07528 11.863 7.20842 12.1721 7.4747C12.4812 7.74097 12.6357 8.07382 12.6357 8.47322C12.6357 8.80933 12.537 9.11018 12.3396 9.37577C12.1421 9.64138 11.9165 9.88876 11.6627 10.1179C11.3299 10.4131 11.0369 10.7378 10.7838 11.092C10.5306 11.4463 10.3952 11.8408 10.3776 12.2756C10.3717 12.4425 10.4304 12.5823 10.5538 12.6952C10.6772 12.808 10.8212 12.8644 10.9857 12.8644C11.162 12.8644 11.3112 12.8056 11.4335 12.6881C11.5557 12.5706 11.6338 12.4266 11.6679 12.2562C11.729 11.9413 11.8592 11.6607 12.0584 11.4145C12.2576 11.1683 12.4734 10.9342 12.7058 10.7121C13.0398 10.3865 13.3314 10.0314 13.5806 9.64697C13.8297 9.26247 13.9543 8.83362 13.9543 8.3604C13.9543 7.63413 13.6681 7.03742 13.0958 6.57027C12.5235 6.10312 11.8554 5.86955 11.0915 5.86955C10.5462 5.86955 10.032 5.9903 9.54903 6.23181C9.06602 6.47331 8.68995 6.82558 8.42082 7.28861C8.33739 7.4308 8.3106 7.58047 8.34047 7.73762C8.37034 7.89475 8.45098 8.01406 8.5824 8.09556C8.74968 8.18867 8.92146 8.21525 9.09773 8.17528C9.27401 8.13533 9.42384 8.03486 9.54724 7.87386C9.73293 7.63293 9.95769 7.4396 10.2215 7.29388C10.4854 7.14815 10.7695 7.07528 11.0741 7.07528Z" fill="#E2E2E2"/>
</g>
</svg>
