<svg width="41" height="40" viewBox="0 0 41 40" fill="none" xmlns="http://www.w3.org/2000/svg">
<path d="M11.0337 29.6C11.2837 29.35 11.4087 29.0542 11.4087 28.7125C11.4087 28.3708 11.2837 28.075 11.0337 27.825L3.70869 20.5L11.0587 13.15C11.292 12.9167 11.4087 12.625 11.4087 12.275C11.4087 11.925 11.2837 11.625 11.0337 11.375C10.7837 11.125 10.4879 11 10.1462 11C9.80452 11 9.50869 11.125 9.25869 11.375L0.858691 19.8C0.758691 19.9 0.687859 20.0083 0.646192 20.125C0.604525 20.2417 0.583692 20.3667 0.583692 20.5C0.583692 20.6333 0.604525 20.7583 0.646192 20.875C0.687859 20.9917 0.758691 21.1 0.858691 21.2L9.28369 29.625C9.51702 29.8583 9.80452 29.975 10.1462 29.975C10.4879 29.975 10.7837 29.85 11.0337 29.6Z" fill="#9E9E9E"/>
</svg>
