<svg width="18" height="19" viewBox="0 0 18 19" fill="none" xmlns="http://www.w3.org/2000/svg">
<path d="M8.99439 20.7533C8.76233 20.7533 8.56793 20.6654 8.4112 20.4895C8.25447 20.3136 8.17611 20.0957 8.17611 19.8357V11.0425C7.08176 11.0425 6.03289 10.8104 5.02952 10.3461C4.02613 9.88173 3.1396 9.21818 2.36992 8.35541C1.60023 7.49266 1.01282 6.49892 0.607695 5.37418C0.202565 4.24946 0 3.07375 0 1.84705V1.09414C0 0.784128 0.0935371 0.524263 0.280611 0.314545C0.467703 0.104848 0.699531 0 0.976094 0H1.64778C2.71841 0 3.75505 0.234118 4.7577 0.702354C5.76034 1.17061 6.64651 1.83611 7.4162 2.69887C7.98715 3.33889 8.45561 4.05382 8.82157 4.84364C9.18752 5.63347 9.44955 6.47231 9.60768 7.36017C9.73363 7.11546 9.87392 6.88368 10.0286 6.66485C10.1832 6.44602 10.3557 6.22993 10.546 6.01658C11.3134 5.15523 12.2001 4.49009 13.2061 4.02114C14.2122 3.55217 15.2609 3.31768 16.3522 3.31768H17.0239C17.3005 3.31768 17.5323 3.42254 17.7194 3.63226C17.9065 3.84198 18 4.10183 18 4.41182V5.16477C18 6.38806 17.7908 7.56357 17.3725 8.69131C16.9541 9.81904 16.3607 10.813 15.5923 11.6731C14.8226 12.5359 13.9406 13.1943 12.9463 13.6484C11.9521 14.1026 10.9077 14.3297 9.81339 14.3297V19.8357C9.81339 20.0957 9.7349 20.3136 9.57794 20.4895C9.42095 20.6654 9.22644 20.7533 8.99439 20.7533Z" fill="#1EB65B"/>
</svg>
