<svg width="22" height="14" viewBox="0 0 22 14" fill="none" xmlns="http://www.w3.org/2000/svg">
<path d="M4.87037 7.10276L3.41745 7.83867C3.17238 7.96665 2.91272 8.00131 2.63847 7.94265C2.36424 7.88399 2.16877 7.748 2.05207 7.5347L0.144049 4.51108C0.00400934 4.28711 -0.0339238 4.07914 0.0302492 3.88718C0.0944397 3.69521 0.243231 3.53523 0.476624 3.40724L6.48081 0.223633H8.2138C8.39468 0.223633 8.53909 0.272962 8.64705 0.371622C8.755 0.470266 8.80897 0.602249 8.80897 0.767572V1.16751C8.80897 1.74878 9.01757 2.23005 9.43477 2.61133C9.85196 2.99261 10.3786 3.18325 11.0146 3.18325C11.6506 3.18325 12.1743 2.99261 12.5856 2.61133C12.997 2.23005 13.2027 1.74878 13.2027 1.16751V0.767572C13.2027 0.602249 13.2567 0.470266 13.3646 0.371622C13.4726 0.272962 13.617 0.223633 13.7979 0.223633H15.5309L21.535 3.40724C21.7684 3.53523 21.9143 3.69521 21.9727 3.88718C22.031 4.07914 21.996 4.28711 21.8676 4.51108L19.9421 7.5347C19.8254 7.748 19.611 7.88532 19.2988 7.94666C18.9866 8.00798 18.7226 7.97998 18.5067 7.86267L17.0713 7.07876V16.5576C17.0713 16.8189 16.9677 17.0415 16.7606 17.2255C16.5534 17.4095 16.3069 17.5015 16.021 17.5015H5.90315C5.61724 17.5015 5.37364 17.4095 5.17233 17.2255C4.97102 17.0415 4.87037 16.8189 4.87037 16.5576V7.10276Z" fill="#1EB65B"/>
</svg>
