<svg width="18" height="18" viewBox="0 0 18 18" fill="none" xmlns="http://www.w3.org/2000/svg">
<path d="M9 9.6115C9.71419 9.6115 10.3179 9.37227 10.811 8.8938C11.3041 8.41532 11.5507 7.8296 11.5507 7.13664C11.5507 6.44368 11.3041 5.85796 10.811 5.37949C10.3179 4.90102 9.71419 4.66178 9 4.66178C8.28581 4.66178 7.68215 4.90102 7.18901 5.37949C6.69588 5.85796 6.44931 6.44368 6.44931 7.13664C6.44931 7.8296 6.69588 8.41532 7.18901 8.8938C7.68215 9.37227 8.28581 9.6115 9 9.6115ZM9 14.0663C8.33682 14.0663 7.73741 13.8889 7.20177 13.5342C6.66612 13.1794 6.27927 12.7133 6.0412 12.1359C5.95618 12.1359 5.87966 12.14 5.81164 12.1482C5.74362 12.1565 5.6671 12.1606 5.58208 12.1606C4.69784 12.1606 3.94114 11.8554 3.31197 11.2449C2.6828 10.6344 2.36821 9.90024 2.36821 9.04229C2.36821 8.69581 2.42773 8.3617 2.54676 8.03997C2.66579 7.71824 2.84434 7.41713 3.08241 7.13664C2.86135 6.85616 2.6913 6.55505 2.57227 6.23332C2.45324 5.91159 2.39372 5.57748 2.39372 5.231C2.39372 4.37305 2.70406 3.63884 3.32472 3.02837C3.94539 2.41791 4.69784 2.11267 5.58208 2.11267C5.6671 2.11267 5.74362 2.1168 5.81164 2.12505C5.87966 2.1333 5.95618 2.13742 6.0412 2.13742C6.27927 1.55996 6.66612 1.09386 7.20177 0.739127C7.73741 0.384396 8.33682 0.207031 9 0.207031C9.66318 0.207031 10.2626 0.384396 10.7982 0.739127C11.3339 1.09386 11.7207 1.55996 11.9588 2.13742C12.0438 2.13742 12.1203 2.1333 12.1884 2.12505C12.2564 2.1168 12.3329 2.11267 12.4179 2.11267C13.3022 2.11267 14.0546 2.41791 14.6753 3.02837C15.2959 3.63884 15.6063 4.37305 15.6063 5.231C15.6063 5.57748 15.551 5.91159 15.4405 6.23332C15.33 6.55505 15.1557 6.85616 14.9176 7.13664C15.1387 7.41713 15.3087 7.71824 15.4277 8.03997C15.5468 8.3617 15.6063 8.69581 15.6063 9.04229C15.6063 9.90024 15.2959 10.6344 14.6753 11.2449C14.0546 11.8554 13.3022 12.1606 12.4179 12.1606C12.3329 12.1606 12.2564 12.1565 12.1884 12.1482C12.1203 12.14 12.0438 12.1359 11.9588 12.1359C11.7207 12.7133 11.3339 13.1794 10.7982 13.5342C10.2626 13.8889 9.66318 14.0663 9 14.0663ZM9 20.9711C9 18.8922 9.64617 17.0526 10.9385 15.4522C12.2309 13.8518 13.8718 12.8123 15.8613 12.3339C16.1844 12.2514 16.5033 12.2225 16.8179 12.2472C17.1324 12.272 17.4088 12.3998 17.6468 12.6308C17.8509 12.8453 17.9657 13.1011 17.9912 13.398C18.0167 13.695 17.9869 13.9838 17.9019 14.2642C17.4258 16.2111 16.3587 17.8157 14.7008 19.0779C13.0428 20.34 11.1426 20.9711 9 20.9711ZM9 20.9959C9 18.917 8.35383 17.0773 7.06148 15.4769C5.76913 13.8765 4.12819 12.8371 2.13865 12.3586C1.81557 12.2761 1.49673 12.2472 1.18215 12.272C0.867561 12.2967 0.591236 12.4246 0.353172 12.6556C0.149117 12.8701 0.0343362 13.1258 0.0088293 13.4228C-0.0166776 13.7198 0.0130805 14.0085 0.0981033 14.289C0.574232 16.2359 1.64127 17.8404 3.29922 19.1026C4.95716 20.3648 6.85742 20.9959 9 20.9959Z" fill="#1EB65B"/>
</svg>
