<svg width="12" height="12" viewBox="0 0 12 12" fill="none" xmlns="http://www.w3.org/2000/svg">
<path d="M5.99968 11.333C5.85795 11.333 5.73922 11.2851 5.6435 11.1893C5.54778 11.0935 5.49991 10.9747 5.49991 10.833V6.04201C4.83154 6.04201 4.19094 5.91551 3.57813 5.66252C2.96531 5.40953 2.42386 5.048 1.95378 4.57791C1.48369 4.10783 1.12493 3.56638 0.877498 2.95356C0.630065 2.34075 0.506348 1.70015 0.506348 1.03177V0.62154C0.506348 0.452629 0.563476 0.31104 0.677731 0.196773C0.791998 0.0825177 0.933587 0.0253906 1.1025 0.0253906H1.51273C2.16662 0.0253906 2.79975 0.152952 3.41211 0.408074C4.02448 0.663207 4.56571 1.02581 5.0358 1.49589C5.38451 1.84461 5.67062 2.23415 5.89413 2.66449C6.11763 3.09484 6.27767 3.55188 6.37425 4.03564C6.45117 3.90231 6.53685 3.77602 6.6313 3.65679C6.72575 3.53756 6.8311 3.41982 6.94733 3.30357C7.41599 2.83426 7.95754 2.47185 8.572 2.21634C9.18645 1.96082 9.82695 1.83306 10.4935 1.83306H10.9037C11.0726 1.83306 11.2142 1.89019 11.3285 2.00446C11.4427 2.11872 11.4999 2.26031 11.4999 2.42921V2.83946C11.4999 3.50598 11.3721 4.14647 11.1166 4.76092C10.8611 5.37538 10.4987 5.91693 10.0293 6.38559C9.55927 6.85567 9.0206 7.21442 8.41333 7.46186C7.80608 7.7093 7.16826 7.83302 6.49988 7.83302V10.833C6.49988 10.9747 6.45195 11.0935 6.35608 11.1893C6.2602 11.2851 6.1414 11.333 5.99968 11.333Z" fill="#1EB65B"/>
</svg>
