<svg width="200" height="63" viewBox="0 0 200 63" fill="none" xmlns="http://www.w3.org/2000/svg">
<rect x="99.6285" y="8.57617" width="43.9763" height="43.9763" fill="#1EB65B"/>
<path d="M123.548 28.9302L131.397 53.8897H115.7L123.548 28.9302Z" fill="#FBFBFB"/>
<rect x="148.062" y="8.57617" width="43.9763" height="43.9763" fill="#1EB65B"/>
<path d="M169.753 35.9129L192.038 26.6491L192.038 45.1767L169.753 35.9129Z" fill="#FBFBFB"/>
<rect x="51.1956" y="8.57617" width="43.9763" height="43.9763" fill="#1EB65B"/>
<path d="M70.2123 40.5189L95.1718 32.6703L95.1718 48.3674L70.2123 40.5189Z" fill="#FBFBFB"/>
<path d="M70.2123 21.7986L95.1718 13.9501L95.1718 29.6472L70.2123 21.7986Z" fill="#FBFBFB"/>
<rect x="0.533203" y="52.5522" width="43.9763" height="45.9077" transform="rotate(-90 0.533203 52.5522)" fill="#1EB65B"/>
<path d="M34.3326 32.8335L26.8058 8.20819L41.8595 8.20819L34.3326 32.8335Z" fill="#FBFBFB"/>
<path d="M15.0187 32.8335L7.4918 8.20819L22.5455 8.20819L15.0187 32.8335Z" fill="#FBFBFB"/>
</svg>
