<svg width="103" height="33" viewBox="0 0 103 33" fill="none" xmlns="http://www.w3.org/2000/svg">
<rect x="51.3076" y="4.44043" width="22.7692" height="22.7692" fill="#1EB65B"/>
<path d="M63.6923 14.979L67.7559 27.902H59.6286L63.6923 14.979Z" fill="#FBFBFB"/>
<rect x="76.3843" y="4.44043" width="22.7692" height="22.7692" fill="#1EB65B"/>
<path d="M87.6152 18.5941L99.1537 13.7977L99.1537 23.3906L87.6152 18.5941Z" fill="#FBFBFB"/>
<rect x="26.231" y="4.44043" width="22.7692" height="22.7692" fill="#1EB65B"/>
<path d="M36.0771 20.9791L49.0002 16.9154L49.0002 25.0427L36.0771 20.9791Z" fill="#FBFBFB"/>
<path d="M36.0771 11.2867L49.0002 7.22306L49.0002 15.3504L36.0771 11.2867Z" fill="#FBFBFB"/>
<rect y="27.2095" width="22.7692" height="23.7692" transform="rotate(-90 0 27.2095)" fill="#1EB65B"/>
<path d="M17.5 17L13.6029 4.25L21.3971 4.25L17.5 17Z" fill="#FBFBFB"/>
<path d="M7.5 17L3.60289 4.25L11.3971 4.25L7.5 17Z" fill="#FBFBFB"/>
</svg>
