<svg width="103" height="33" viewBox="0 0 103 33" fill="none" xmlns="http://www.w3.org/2000/svg">
<rect x="51.3076" y="4.44043" width="22.7692" height="22.7692" fill="#1EB65B"/>
<path d="M63.6923 14.9785L67.7559 27.9016H59.6286L63.6923 14.9785Z" fill="#FBFBFB"/>
<rect x="76.3843" y="4.44043" width="22.7692" height="22.7692" fill="#1EB65B"/>
<path d="M87.6152 18.5944L99.1537 13.7979L99.1537 23.3908L87.6152 18.5944Z" fill="#FBFBFB"/>
<rect x="26.231" y="4.44043" width="22.7692" height="22.7692" fill="#1EB65B"/>
<path d="M36.0771 20.9786L49.0002 16.915L49.0002 25.0422L36.0771 20.9786Z" fill="#FBFBFB"/>
<path d="M36.0771 11.2862L49.0002 7.22257L49.0002 15.3499L36.0771 11.2862Z" fill="#FBFBFB"/>
<rect y="27.21" width="22.7692" height="23.7692" transform="rotate(-90 0 27.21)" fill="#1EB65B"/>
<path d="M17.5 17.001L13.6029 4.25098L21.3971 4.25098L17.5 17.001Z" fill="#FBFBFB"/>
<path d="M7.5 17.001L3.60289 4.25098L11.3971 4.25098L7.5 17.001Z" fill="#FBFBFB"/>
</svg>
