<svg width="228" height="91" viewBox="0 0 228 91" fill="none" xmlns="http://www.w3.org/2000/svg">
<rect x="113.628" y="8.57617" width="43.9763" height="43.9763" fill="#1EB65B"/>
<path d="M137.549 28.9303L145.397 53.8899H129.7L137.549 28.9303Z" fill="#FBFBFB"/>
<rect x="162.062" y="8.57617" width="43.9763" height="43.9763" fill="#1EB65B"/>
<path d="M183.753 35.9127L206.038 26.6489L206.038 45.1766L183.753 35.9127Z" fill="#FBFBFB"/>
<rect x="65.1958" y="8.57617" width="43.9763" height="43.9763" fill="#1EB65B"/>
<path d="M84.2124 40.5188L109.172 32.6703L109.172 48.3673L84.2124 40.5188Z" fill="#FBFBFB"/>
<path d="M84.2124 21.7988L109.172 13.9503L109.172 29.6473L84.2124 21.7988Z" fill="#FBFBFB"/>
<rect x="14.5332" y="52.5523" width="43.9763" height="45.9077" transform="rotate(-90 14.5332 52.5523)" fill="#1EB65B"/>
<path d="M48.3326 32.8338L40.8058 8.20844L55.8595 8.20844L48.3326 32.8338Z" fill="#FBFBFB"/>
<path d="M29.0187 32.8338L21.4918 8.20844L36.5455 8.20844L29.0187 32.8338Z" fill="#FBFBFB"/>
<path d="M11.0978 74.5757H12.4978V87.3717H11.0978V74.5757ZM9.13782 79.6157H11.4478V80.8057H9.13782V79.6157ZM8.21382 74.8277H9.57182V86.7417H8.21382V74.8277ZM1.99781 83.1157H2.86582C4.60182 83.1157 5.88982 83.0597 7.38782 82.7657L7.51382 83.9697C5.97382 84.2777 4.65782 84.3337 2.86582 84.3337H1.99781V83.1157ZM1.99781 76.1017H6.74382V77.2917H3.45382V83.6897H1.99781V76.1017ZM13.9247 75.8217H21.4567V76.9977H13.9247V75.8217ZM17.6907 77.5437C19.5247 77.5437 20.7847 78.4677 20.7847 79.8817C20.7847 81.2817 19.5247 82.1917 17.6907 82.1917C15.8567 82.1917 14.5827 81.2817 14.5827 79.8817C14.5827 78.4677 15.8567 77.5437 17.6907 77.5437ZM17.6907 78.6637C16.6827 78.6637 15.9967 79.1117 15.9967 79.8817C15.9967 80.6237 16.6827 81.0857 17.6907 81.0857C18.6987 81.0857 19.3847 80.6237 19.3847 79.8817C19.3847 79.1117 18.6987 78.6637 17.6907 78.6637ZM22.4227 74.5757H23.8927V82.5837H22.4227V74.5757ZM23.4867 78.0057H25.6987V79.2097H23.4867V78.0057ZM15.4787 83.2137H23.8927V87.3717H22.4227V84.3897H15.4787V83.2137ZM16.9627 74.5057H18.4187V76.4937H16.9627V74.5057ZM28.7356 75.3597H29.8836V76.9697C29.8836 78.9997 28.8896 81.0717 26.9156 81.9257L26.1456 80.7917C27.8676 80.0357 28.7356 78.4117 28.7356 76.9697V75.3597ZM28.9876 75.3597H30.1496V76.9697C30.1496 78.3697 30.9896 79.7837 32.6416 80.4277L31.8576 81.5477C29.9536 80.7917 28.9876 78.9437 28.9876 76.9697V75.3597ZM35.6656 74.5897H37.0516V82.4437H35.6656V74.5897ZM33.8456 77.8657H36.0856V79.0557H33.8456V77.8657ZM32.9356 74.8277H34.3076V82.0377H32.9356V74.8277ZM32.7956 82.6817C35.4416 82.6817 37.1216 83.5497 37.1216 85.0197C37.1216 86.4897 35.4416 87.3577 32.7956 87.3577C30.1216 87.3577 28.4696 86.4897 28.4696 85.0197C28.4696 83.5497 30.1216 82.6817 32.7956 82.6817ZM32.7956 83.8017C30.9896 83.8017 29.9116 84.2357 29.9116 85.0197C29.9116 85.8037 30.9896 86.2377 32.7956 86.2377C34.5876 86.2377 35.6516 85.8037 35.6516 85.0197C35.6516 84.2357 34.5876 83.8017 32.7956 83.8017ZM44.3165 74.7717C47.1865 74.7717 48.8805 75.5557 48.8805 76.9837C48.8805 78.3977 47.1865 79.1817 44.3165 79.1817C41.4465 79.1817 39.7665 78.3977 39.7665 76.9837C39.7665 75.5557 41.4465 74.7717 44.3165 74.7717ZM44.3165 75.8637C42.3425 75.8637 41.2785 76.2557 41.2785 76.9837C41.2785 77.7117 42.3425 78.0897 44.3165 78.0897C46.3045 78.0897 47.3545 77.7117 47.3545 76.9837C47.3545 76.2557 46.3045 75.8637 44.3165 75.8637ZM38.5345 79.9237H50.0985V81.0857H38.5345V79.9237ZM39.9065 82.0237H48.6565V85.0757H41.3765V86.4477H39.9205V84.0397H47.2145V83.1157H39.9065V82.0237ZM39.9205 86.1257H49.0205V87.2597H39.9205V86.1257ZM57.61 75.1357C59.528 75.1357 60.914 76.2277 60.914 77.8097C60.914 79.3917 59.528 80.4977 57.61 80.4977C55.692 80.4977 54.306 79.3917 54.306 77.8097C54.306 76.2277 55.692 75.1357 57.61 75.1357ZM57.61 76.3397C56.504 76.3397 55.72 76.9137 55.72 77.8097C55.72 78.7197 56.504 79.2797 57.61 79.2797C58.716 79.2797 59.514 78.7197 59.514 77.8097C59.514 76.9137 58.716 76.3397 57.61 76.3397ZM56.938 81.8557H58.408V86.9797H56.938V81.8557ZM62.566 74.5757H64.022V87.3717H62.566V74.5757ZM53.634 82.6397L53.452 81.4217C55.762 81.4217 58.968 81.3937 61.74 80.9737L61.838 82.0517C58.996 82.5977 55.916 82.6257 53.634 82.6397ZM74.2829 74.5897H75.7529V84.1657H74.2829V74.5897ZM75.3189 78.6497H77.5589V79.8677H75.3189V78.6497ZM65.7849 76.0457H73.3169V77.2077H65.7849V76.0457ZM69.5509 77.7957C71.3709 77.7957 72.6449 78.7757 72.6449 80.2177C72.6449 81.6737 71.3709 82.6397 69.5509 82.6397C67.7169 82.6397 66.4429 81.6737 66.4429 80.2177C66.4429 78.7757 67.7169 77.7957 69.5509 77.7957ZM69.5509 78.9297C68.5429 78.9297 67.8569 79.4197 67.8569 80.2177C67.8569 81.0297 68.5429 81.5057 69.5509 81.5057C70.5589 81.5057 71.2449 81.0297 71.2449 80.2177C71.2449 79.4197 70.5589 78.9297 69.5509 78.9297ZM68.8229 74.5757H70.2789V76.6197H68.8229V74.5757ZM67.6609 85.9297H76.2709V87.1197H67.6609V85.9297ZM67.6609 83.4237H69.1309V86.4337H67.6609V83.4237ZM81.3323 75.4857H82.7743V77.4877H85.9523V75.4857H87.4083V81.8977H81.3323V75.4857ZM82.7743 78.6217V80.7217H85.9523V78.6217H82.7743ZM89.7463 74.5897H91.2163V84.0117H89.7463V74.5897ZM82.8023 85.9297H91.5103V87.1197H82.8023V85.9297ZM82.8023 83.0737H84.2723V86.5317H82.8023V83.0737ZM93.7352 83.1717H94.7992C97.1232 83.1717 98.8172 83.1157 100.777 82.8077L100.917 83.9837C98.9152 84.3197 97.1652 84.3757 94.7992 84.3757H93.7352V83.1717ZM93.7352 75.6957H100.063V76.8997H95.1912V83.5777H93.7352V75.6957ZM94.8552 79.2657H99.5592V80.4277H94.8552V79.2657ZM102.079 74.5757H103.549V87.3717H102.079V74.5757ZM108.56 76.4937H109.736V78.2857C109.736 81.0997 108.294 83.8857 106.096 84.9357L105.256 83.7737C107.23 82.8637 108.56 80.4697 108.56 78.2857V76.4937ZM108.868 76.4937H110.03V78.2857C110.03 80.3997 111.346 82.6117 113.348 83.4517L112.536 84.6137C110.31 83.6197 108.868 81.0297 108.868 78.2857V76.4937ZM105.718 75.8497H112.872V77.0677H105.718V75.8497ZM114.37 74.5757H115.84V87.3717H114.37V74.5757ZM123.268 86.4057C121.28 86.4057 120.034 85.1457 120.034 83.5217C120.034 80.3717 124.78 80.0077 124.78 77.8657C124.78 77.3057 124.514 76.8297 123.898 76.8297C123.198 76.8297 122.722 77.4177 122.722 78.2157C122.722 80.0637 124.878 82.5277 126.894 83.9277C127.72 84.5017 128.518 84.9077 129.19 85.0757L128.784 86.4057C127.888 86.1957 126.908 85.7057 125.914 84.9917C123.562 83.2417 121.364 80.3857 121.364 78.2297C121.364 76.8297 122.358 75.7237 123.87 75.7237C125.228 75.7237 126.054 76.5917 126.054 77.8377C126.054 80.5257 121.588 81.2817 121.588 83.4237C121.588 84.4597 122.386 85.1317 123.464 85.1317C124.29 85.1317 125.074 84.6837 125.76 83.9837C126.586 83.1017 127.23 81.9537 127.594 80.5677H129.092C128.63 82.1217 127.916 83.5357 126.866 84.7257C125.97 85.7337 124.794 86.4057 123.268 86.4057ZM141.211 74.5757H142.681V87.3717H141.211V74.5757ZM137.459 75.9337H138.901C138.901 79.7277 137.389 82.9477 132.993 85.0897L132.223 83.9137C135.905 82.1357 137.459 79.6017 137.459 76.1857V75.9337ZM132.853 75.9337H138.117V77.1097H132.853V75.9337ZM144.43 82.0517H156.022V83.2277H144.43V82.0517ZM149.456 82.6257H150.912V87.3717H149.456V82.6257ZM145.83 75.0797H147.286V76.7037H153.138V75.0797H154.594V80.6657H145.83V75.0797ZM147.286 77.8657V79.4897H153.138V77.8657H147.286ZM160.383 74.9397H169.833V76.0597H160.383V74.9397ZM160.453 78.1317H169.763V79.2517H160.453V78.1317ZM162.175 75.3737H163.645V78.8597H162.175V75.3737ZM166.571 75.3737H168.041V78.8597H166.571V75.3737ZM159.333 80.1337H170.897V81.2957H159.333V80.1337ZM160.705 82.2337H169.455V85.2017H162.175V86.5877H160.719V84.1937H168.013V83.2977H160.705V82.2337ZM160.719 86.1677H169.819V87.2597H160.719V86.1677ZM181.102 74.5757H182.488V83.2417H181.102V74.5757ZM179.282 77.8097H181.522V78.9997H179.282V77.8097ZM178.316 74.8137H179.688V82.1497H178.316V74.8137ZM172.212 80.8477H173.066C174.886 80.8477 176.16 80.7917 177.63 80.4837L177.77 81.6457C176.244 81.9537 174.942 82.0097 173.066 82.0097H172.212V80.8477ZM172.184 75.5277H177.014V79.2517H173.626V81.6177H172.212V78.1737H175.6V76.6897H172.184V75.5277ZM177.448 82.6817H178.694V82.9477C178.694 85.1877 176.622 86.8677 173.794 87.3297L173.22 86.1817C175.698 85.8457 177.448 84.4597 177.448 82.9477V82.6817ZM177.644 82.6817H178.904V82.9477C178.904 84.4597 180.64 85.8457 183.118 86.1817L182.544 87.3297C179.73 86.8677 177.644 85.1877 177.644 82.9477V82.6817ZM183.971 80.9037H195.535V82.0797H183.971V80.9037ZM189.011 79.3777H190.467V81.4637H189.011V79.3777ZM185.021 74.9537H194.471V76.1437H185.021V74.9537ZM185.091 78.4817H194.401V79.6577H185.091V78.4817ZM186.813 75.4297H188.283V79.2517H186.813V75.4297ZM191.209 75.4297H192.679V79.2517H191.209V75.4297ZM185.357 83.1157H194.135V87.2177H185.357V83.1157ZM192.707 84.2777H186.799V86.0417H192.707V84.2777ZM196.752 89.0237L196.402 88.1137C197.368 87.7077 197.928 86.9937 197.928 86.1537L197.816 84.8657L198.488 85.9157C198.292 86.1257 198.04 86.2097 197.774 86.2097C197.2 86.2097 196.682 85.8317 196.682 85.1737C196.682 84.5297 197.2 84.1377 197.816 84.1377C198.6 84.1377 199.062 84.7817 199.062 85.8597C199.062 87.3437 198.208 88.4777 196.752 89.0237ZM205.69 75.3457C207.314 75.3457 208.49 76.3257 208.49 77.7397C208.49 79.1397 207.314 80.1197 205.69 80.1197C204.066 80.1197 202.89 79.1397 202.89 77.7397C202.89 76.3257 204.066 75.3457 205.69 75.3457ZM205.69 76.4517C204.808 76.4517 204.192 76.9557 204.192 77.7397C204.192 78.5097 204.808 79.0277 205.69 79.0277C206.558 79.0277 207.188 78.5097 207.188 77.7397C207.188 76.9557 206.558 76.4517 205.69 76.4517ZM212.074 74.5757H213.474V87.3717H212.074V74.5757ZM209.61 74.8277H210.982V86.7417H209.61V74.8277ZM207.384 82.8917H210.072V84.0257H207.384V82.8917ZM204.948 81.5757H206.348V86.3497H204.948V81.5757ZM202.484 82.1777L202.302 80.9737C204.038 80.9737 206.824 80.9457 208.868 80.6517L208.98 81.7297C206.852 82.1497 204.192 82.1777 202.484 82.1777ZM218.261 75.5137C220.151 75.5137 221.495 77.2637 221.495 80.0217C221.495 82.7797 220.151 84.5437 218.261 84.5437C216.371 84.5437 215.027 82.7797 215.027 80.0217C215.027 77.2637 216.371 75.5137 218.261 75.5137ZM218.261 76.8437C217.169 76.8437 216.427 78.0337 216.427 80.0217C216.427 82.0237 217.169 83.2277 218.261 83.2277C219.367 83.2277 220.109 82.0237 220.109 80.0217C220.109 78.0337 219.367 76.8437 218.261 76.8437ZM223.973 74.5617H225.429V87.3857H223.973V74.5617ZM221.047 79.3357H224.603V80.5117H221.047V79.3357Z" fill="#1EB65B"/>
</svg>
