<svg width="199" height="89" viewBox="0 0 199 89" fill="none" xmlns="http://www.w3.org/2000/svg">
<path d="M61.2823 21L58.7083 7.68H61.4263L62.4703 14.178C62.6863 15.582 62.8843 17.004 63.1003 18.444H63.1723C63.4423 17.004 63.7303 15.582 64.0183 14.178L65.5483 7.68H67.8343L69.3823 14.178C69.6703 15.564 69.9223 17.004 70.2283 18.444H70.3183C70.4983 17.004 70.7143 15.582 70.8943 14.178L71.9743 7.68H74.4943L72.0283 21H68.6983L67.2223 14.412C66.9883 13.386 66.8083 12.342 66.6463 11.334H66.5743C66.3943 12.342 66.1963 13.386 65.9983 14.412L64.5403 21H61.2823ZM79.949 21.252C77.123 21.252 74.927 19.308 74.927 15.978C74.927 12.702 77.231 10.686 79.607 10.686C82.397 10.686 83.819 12.702 83.819 15.492C83.819 15.996 83.765 16.464 83.711 16.716H77.483C77.717 18.372 78.797 19.218 80.291 19.218C81.101 19.218 81.821 18.966 82.559 18.516L83.441 20.154C82.451 20.838 81.191 21.252 79.949 21.252ZM77.447 14.952H81.569C81.569 13.584 80.957 12.72 79.661 12.72C78.599 12.72 77.663 13.476 77.447 14.952ZM87.7799 21.252C85.9259 21.252 85.2959 20.046 85.2959 18.174V6.654H87.9419V18.282C87.9419 18.912 88.2119 19.11 88.4639 19.11C88.5539 19.11 88.6259 19.11 88.8059 19.074L89.1299 21.036C88.8239 21.144 88.4099 21.252 87.7799 21.252ZM94.5197 21.252C91.7477 21.252 89.6237 19.308 89.6237 15.978C89.6237 12.63 92.0177 10.686 94.7537 10.686C96.0137 10.686 96.9497 11.154 97.6877 11.802L96.4457 13.494C95.9417 13.062 95.4557 12.846 94.9157 12.846C93.3497 12.846 92.3237 14.07 92.3237 15.978C92.3237 17.868 93.3677 19.11 94.8077 19.11C95.5457 19.11 96.2297 18.75 96.7877 18.3L97.8317 20.046C96.8777 20.874 95.6357 21.252 94.5197 21.252ZM102.605 21.252C100.067 21.252 97.7631 19.308 97.7631 15.978C97.7631 12.63 100.067 10.686 102.605 10.686C105.125 10.686 107.429 12.63 107.429 15.978C107.429 19.308 105.125 21.252 102.605 21.252ZM102.605 19.11C103.973 19.11 104.729 17.868 104.729 15.978C104.729 14.07 103.973 12.846 102.605 12.846C101.219 12.846 100.463 14.07 100.463 15.978C100.463 17.868 101.219 19.11 102.605 19.11ZM108.941 21V10.938H111.083L111.299 12.27H111.353C112.199 11.406 113.135 10.686 114.431 10.686C115.889 10.686 116.735 11.316 117.203 12.432C118.139 11.478 119.111 10.686 120.425 10.686C122.567 10.686 123.539 12.198 123.539 14.718V21H120.893V15.06C120.893 13.476 120.461 12.954 119.489 12.954C118.913 12.954 118.283 13.314 117.563 14.07V21H114.917V15.06C114.917 13.476 114.467 12.954 113.495 12.954C112.937 12.954 112.271 13.314 111.587 14.07V21H108.941ZM129.962 21.252C127.136 21.252 124.94 19.308 124.94 15.978C124.94 12.702 127.244 10.686 129.62 10.686C132.41 10.686 133.832 12.702 133.832 15.492C133.832 15.996 133.778 16.464 133.724 16.716H127.496C127.73 18.372 128.81 19.218 130.304 19.218C131.114 19.218 131.834 18.966 132.572 18.516L133.454 20.154C132.464 20.838 131.204 21.252 129.962 21.252ZM127.46 14.952H131.582C131.582 13.584 130.97 12.72 129.674 12.72C128.612 12.72 127.676 13.476 127.46 14.952ZM136.353 16.464L135.957 9.822L135.885 7.32H138.531L138.459 9.822L138.081 16.464H136.353ZM137.199 21.252C136.263 21.252 135.561 20.514 135.561 19.524C135.561 18.534 136.263 17.814 137.199 17.814C138.153 17.814 138.855 18.534 138.855 19.524C138.855 20.514 138.153 21.252 137.199 21.252Z" fill="#1EB65B"/>
<rect x="99.0957" y="34.5762" width="43.9763" height="43.9763" fill="#1EB65B"/>
<path d="M123.016 54.9303L130.864 79.8898H115.167L123.016 54.9303Z" fill="#FBFBFB"/>
<rect x="147.528" y="34.5762" width="43.9763" height="43.9763" fill="#1EB65B"/>
<path d="M169.22 61.9127L191.505 52.6489L191.505 71.1765L169.22 61.9127Z" fill="#FBFBFB"/>
<rect x="50.6621" y="34.5762" width="43.9763" height="43.9763" fill="#1EB65B"/>
<path d="M69.6787 66.5189L94.6382 58.6703L94.6382 74.3674L69.6787 66.5189Z" fill="#FBFBFB"/>
<path d="M69.6787 47.7988L94.6382 39.9503L94.6382 55.6473L69.6787 47.7988Z" fill="#FBFBFB"/>
<rect y="78.5522" width="43.9763" height="45.9077" transform="rotate(-90 0 78.5522)" fill="#1EB65B"/>
<path d="M33.7999 58.8337L26.2731 34.2084L41.3268 34.2084L33.7999 58.8337Z" fill="#FBFBFB"/>
<path d="M14.4855 58.8337L6.9586 34.2084L22.0123 34.2084L14.4855 58.8337Z" fill="#FBFBFB"/>
</svg>
