<svg width="25" height="24" viewBox="0 0 25 24" fill="none" xmlns="http://www.w3.org/2000/svg">
<mask id="mask0_197_5861" style="mask-type:alpha" maskUnits="userSpaceOnUse" x="0" y="0" width="25" height="24">
<rect x="0.300049" width="24" height="24" fill="#D9D9D9"/>
</mask>
<g mask="url(#mask0_197_5861)">
<path d="M12.2998 20.75C12.0872 20.75 11.9091 20.6781 11.7655 20.5344C11.622 20.3907 11.5502 20.2125 11.5502 20V12.8135C10.5476 12.8135 9.58671 12.6238 8.66749 12.2443C7.74826 11.8648 6.93608 11.3225 6.23096 10.6173C5.52583 9.91223 4.98769 9.10006 4.61654 8.18082C4.24539 7.26161 4.05981 6.30072 4.05981 5.29815V4.6828C4.05981 4.42943 4.14551 4.21705 4.31689 4.04565C4.48829 3.87426 4.70067 3.78857 4.95404 3.78857H5.56939C6.55022 3.78857 7.49991 3.97992 8.41846 4.3626C9.33701 4.7453 10.1489 5.28921 10.854 5.99432C11.3771 6.51741 11.8062 7.10171 12.1415 7.74722C12.4767 8.39274 12.7168 9.07832 12.8617 9.80395C12.977 9.60395 13.1056 9.41452 13.2472 9.23567C13.3889 9.05682 13.5469 8.88022 13.7213 8.70585C14.4243 8.00188 15.2366 7.45827 16.1583 7.075C17.08 6.69172 18.0407 6.50007 19.0405 6.50007H19.6559C19.9092 6.50007 20.1216 6.58577 20.293 6.75717C20.4644 6.92857 20.5501 7.14095 20.5501 7.3943V8.00967C20.5501 9.00946 20.3585 9.97019 19.9752 10.8919C19.5919 11.8136 19.0483 12.6259 18.3443 13.3289C17.6392 14.034 16.8312 14.5721 15.9203 14.9433C15.0094 15.3144 14.0527 15.5 13.0501 15.5V20C13.0501 20.2125 12.9782 20.3907 12.8344 20.5344C12.6906 20.6781 12.5124 20.75 12.2998 20.75Z" fill="#1EB65B"/>
</g>
</svg>
