<svg width="25" height="24" viewBox="0 0 25 24" fill="none" xmlns="http://www.w3.org/2000/svg">
<mask id="mask0_197_5849" style="mask-type:alpha" maskUnits="userSpaceOnUse" x="0" y="0" width="25" height="24">
<rect x="0.300049" width="24" height="24" fill="#D9D9D9"/>
</mask>
<g mask="url(#mask0_197_5849)">
<path d="M12.2998 21.9615C12.0872 21.9615 11.9091 21.8896 11.7655 21.7458C11.622 21.6021 11.5502 21.424 11.5502 21.2115V14.0249C10.5476 14.0249 9.58671 13.8352 8.66749 13.4557C7.74826 13.0762 6.93608 12.5339 6.23096 11.8288C5.52583 11.1237 4.98769 10.3115 4.61654 9.39225C4.24539 8.47303 4.05981 7.51214 4.05981 6.50957V5.89422C4.05981 5.64086 4.14551 5.42847 4.31689 5.25707C4.48829 5.08569 4.70067 5 4.95404 5H5.56939C6.55022 5 7.49991 5.19134 8.41846 5.57402C9.33701 5.95673 10.1489 6.50063 10.854 7.20575C11.3771 7.72883 11.8062 8.31313 12.1415 8.95865C12.4767 9.60417 12.7168 10.2897 12.8617 11.0154C12.977 10.8154 13.1056 10.6259 13.2472 10.4471C13.3889 10.2682 13.5469 10.0916 13.7213 9.91727C14.4243 9.21331 15.2366 8.66969 16.1583 8.28642C17.08 7.90314 18.0407 7.7115 19.0405 7.7115H19.6559C19.9092 7.7115 20.1216 7.7972 20.293 7.9686C20.4644 8.14 20.5501 8.35238 20.5501 8.60573V9.2211C20.5501 10.2209 20.3585 11.1816 19.9752 12.1033C19.5919 13.025 19.0483 13.8373 18.3443 14.5403C17.6392 15.2454 16.8312 15.7836 15.9203 16.1547C15.0094 16.5259 14.0527 16.7114 13.0501 16.7114V21.2115C13.0501 21.424 12.9782 21.6021 12.8344 21.7458C12.6906 21.8896 12.5124 21.9615 12.2998 21.9615ZM11.5598 12.4999C11.5598 11.6999 11.4056 10.9374 11.0973 10.2124C10.7889 9.48745 10.3514 8.84162 9.78476 8.27495C9.2181 7.70828 8.57227 7.27078 7.84727 6.96245C7.12226 6.65412 6.35976 6.49995 5.55976 6.49995C5.55976 7.29995 5.70976 8.06662 6.00976 8.79995C6.30976 9.53328 6.7431 10.1833 7.30976 10.7499C7.87643 11.3166 8.52643 11.7499 9.25977 12.0499C9.9931 12.3499 10.7598 12.4999 11.5598 12.4999ZM13.0501 15.2115C13.8501 15.2115 14.6126 15.0615 15.3376 14.7615C16.0626 14.4615 16.7084 14.0281 17.2751 13.4615C17.8418 12.8948 18.2793 12.2448 18.5876 11.5115C18.8959 10.7781 19.0501 10.0115 19.0501 9.21147C18.2501 9.21147 17.4834 9.36564 16.7501 9.67397C16.0168 9.98231 15.3668 10.4198 14.8001 10.9865C14.2334 11.5531 13.8001 12.199 13.5001 12.924C13.2001 13.649 13.0501 14.4115 13.0501 15.2115Z" fill="#BABABA"/>
</g>
</svg>
