<svg width="25" height="24" viewBox="0 0 25 24" fill="none" xmlns="http://www.w3.org/2000/svg">
<mask id="mask0_1211_3754" style="mask-type:alpha" maskUnits="userSpaceOnUse" x="0" y="0" width="25" height="24">
<rect x="0.699707" width="24" height="24" fill="#D9D9D9"/>
</mask>
<g mask="url(#mask0_1211_3754)">
<path d="M5.77286 20.75C5.26775 20.75 4.84019 20.575 4.49019 20.225C4.14019 19.875 3.96519 19.4474 3.96519 18.9423V10.9538C3.56262 10.623 3.26037 10.1939 3.05844 9.66633C2.85652 9.13876 2.85235 8.56921 3.04594 7.95768L4.05749 4.65383C4.19082 4.23333 4.4171 3.89423 4.73634 3.63653C5.05557 3.37884 5.43698 3.25 5.88056 3.25H19.5305C19.9741 3.25 20.353 3.37308 20.6671 3.61923C20.9812 3.86538 21.21 4.20383 21.3536 4.6346L22.3844 7.95768C22.578 8.56921 22.5738 9.13683 22.3719 9.66055C22.17 10.1843 21.8677 10.6218 21.4652 10.9731V18.9423C21.4652 19.4474 21.2902 19.875 20.9402 20.225C20.5902 20.575 20.1626 20.75 19.6575 20.75H5.77286ZM14.9152 10.25C15.4613 10.25 15.8719 10.083 16.1469 9.74903C16.4219 9.41506 16.5344 9.05641 16.4844 8.67308L15.8767 4.74995H13.4652V8.69998C13.4652 9.12049 13.6075 9.48396 13.8921 9.79038C14.1767 10.0968 14.5177 10.25 14.9152 10.25ZM10.4152 10.25C10.8754 10.25 11.2488 10.0968 11.5354 9.79038C11.8219 9.48396 11.9652 9.12049 11.9652 8.69998V4.74995H9.55361L8.94591 8.71153C8.89208 9.06666 9.00362 9.41185 9.28054 9.7471C9.55747 10.0824 9.93568 10.25 10.4152 10.25ZM5.96516 10.25C6.33568 10.25 6.65428 10.1208 6.92096 9.8625C7.18763 9.60415 7.35237 9.27947 7.41519 8.88845L8.00366 4.74995H5.88056C5.77158 4.74995 5.68504 4.77399 5.62094 4.82208C5.55682 4.87016 5.50874 4.94228 5.47669 5.03845L4.51516 8.29228C4.3831 8.72178 4.44527 9.15544 4.70169 9.59325C4.9581 10.0311 5.37926 10.25 5.96516 10.25ZM19.4652 10.25C20.0062 10.25 20.4203 10.0375 20.7075 9.6125C20.9947 9.18748 21.0639 8.74741 20.9152 8.29228L19.9037 5.0192C19.8716 4.92305 19.8235 4.85413 19.7594 4.81245C19.6953 4.77078 19.6088 4.74995 19.4998 4.74995H17.4267L18.0152 8.88845C18.078 9.27947 18.2427 9.60415 18.5094 9.8625C18.7761 10.1208 19.0946 10.25 19.4652 10.25ZM5.77286 19.25H19.6575C19.7472 19.25 19.821 19.2212 19.8786 19.1635C19.9363 19.1058 19.9652 19.032 19.9652 18.9423V11.6615C19.8562 11.7012 19.7652 11.7259 19.6921 11.7355C19.619 11.7451 19.5434 11.75 19.4652 11.75C19.0152 11.75 18.6193 11.6685 18.2777 11.5057C17.936 11.3429 17.6049 11.082 17.2844 10.723C17.0036 11.0358 16.6716 11.2852 16.2883 11.4711C15.9049 11.657 15.4677 11.75 14.9767 11.75C14.5523 11.75 14.1523 11.6618 13.7767 11.4855C13.4011 11.3092 13.0472 11.0551 12.7152 10.723C12.4062 11.0551 12.0562 11.3092 11.6652 11.4855C11.2741 11.6618 10.878 11.75 10.4767 11.75C10.0254 11.75 9.60235 11.6682 9.20749 11.5048C8.8126 11.3413 8.46516 11.0807 8.16516 10.723C7.74465 11.1435 7.35715 11.4198 7.00266 11.5519C6.64818 11.6839 6.30235 11.75 5.96516 11.75C5.88696 11.75 5.8062 11.7451 5.72286 11.7355C5.63951 11.7259 5.55361 11.7012 5.46516 11.6615V18.9423C5.46516 19.032 5.494 19.1058 5.55169 19.1635C5.60939 19.2212 5.68311 19.25 5.77286 19.25Z" fill="#BABABA"/>
</g>
</svg>
